<svg xmlns="http://www.w3.org/2000/svg" xmlns:xlink="http://www.w3.org/1999/xlink" width="500" zoomAndPan="magnify" viewBox="0 0 375 374.999991" height="500" preserveAspectRatio="xMidYMid meet" version="1.0"><defs><filter x="0%" y="0%" width="100%" height="100%" id="c09ffeedf0"><feColorMatrix values="0 0 0 0 1 0 0 0 0 1 0 0 0 0 1 0 0 0 1 0" color-interpolation-filters="sRGB"/></filter><mask id="06d1b47cff"><g filter="url(#c09ffeedf0)"><rect x="-37.5" width="450" fill="#000000" y="-37.499999" height="449.999989" fill-opacity="0.12"/></g></mask><clipPath id="86e9127698"><path d="M 63 370 L 130 370 L 130 375 L 63 375 Z M 63 370 " clip-rule="nonzero"/></clipPath><clipPath id="be3a66c62a"><path d="M 64 344 L 89 344 L 89 375 L 64 375 Z M 64 344 " clip-rule="nonzero"/></clipPath><clipPath id="3cdfb0f1ec"><path d="M 183 344 L 223 344 L 223 375 L 183 375 Z M 183 344 " clip-rule="nonzero"/></clipPath><clipPath id="0ab32e5fea"><path d="M 292 367 L 319 367 L 319 375 L 292 375 Z M 292 367 " clip-rule="nonzero"/></clipPath><clipPath id="e3c70bba43"><path d="M 11 355 L 38 355 L 38 375 L 11 375 Z M 11 355 " clip-rule="nonzero"/></clipPath><clipPath id="c3cc99861e"><path d="M 39 364 L 53 364 L 53 375 L 39 375 Z M 39 364 " clip-rule="nonzero"/></clipPath><clipPath id="851cf70b9d"><path d="M 354 298 L 375 298 L 375 317 L 354 317 Z M 354 298 " clip-rule="nonzero"/></clipPath><clipPath id="93a2cc3c89"><path d="M 364 321 L 375 321 L 375 343 L 364 343 Z M 364 321 " clip-rule="nonzero"/></clipPath><clipPath id="c9349e79b7"><path d="M 351 343 L 375 343 L 375 364 L 351 364 Z M 351 343 " clip-rule="nonzero"/></clipPath><clipPath id="e4c3a176cb"><path d="M 369 266 L 375 266 L 375 281 L 369 281 Z M 369 266 " clip-rule="nonzero"/></clipPath><clipPath id="b58af15ce4"><path d="M 354 163 L 375 163 L 375 218 L 354 218 Z M 354 163 " clip-rule="nonzero"/></clipPath><clipPath id="7b22057d7c"><path d="M 0 43 L 24 43 L 24 85 L 0 85 Z M 0 43 " clip-rule="nonzero"/></clipPath><clipPath id="2edb3987e4"><path d="M 0 88 L 13 88 L 13 109 L 0 109 Z M 0 88 " clip-rule="nonzero"/></clipPath><clipPath id="20897e93ab"><path d="M 0 115 L 28 115 L 28 163 L 0 163 Z M 0 115 " clip-rule="nonzero"/></clipPath><clipPath id="31c78c9f77"><path d="M 0 166 L 16 166 L 16 191 L 0 191 Z M 0 166 " clip-rule="nonzero"/></clipPath><clipPath id="11a916f746"><path d="M 55 0 L 78 0 L 78 22 L 55 22 Z M 55 0 " clip-rule="nonzero"/></clipPath><clipPath id="f9f9097871"><path d="M 83 0 L 109 0 L 109 6 L 83 6 Z M 83 0 " clip-rule="nonzero"/></clipPath><clipPath id="fe3a9dadc6"><path d="M 111 0 L 137 0 L 137 19 L 111 19 Z M 111 0 " clip-rule="nonzero"/></clipPath><clipPath id="2ae13dde98"><path d="M 201 0 L 260 0 L 260 27 L 201 27 Z M 201 0 " clip-rule="nonzero"/></clipPath><clipPath id="52837f8381"><path d="M 158 0 L 192 0 L 192 6 L 158 6 Z M 158 0 " clip-rule="nonzero"/></clipPath><clipPath id="b098efa279"><path d="M 353 75 L 375 75 L 375 117 L 353 117 Z M 353 75 " clip-rule="nonzero"/></clipPath><clipPath id="76ad0f91bd"><path d="M 371 123 L 375 123 L 375 147 L 371 147 Z M 371 123 " clip-rule="nonzero"/></clipPath><clipPath id="14cb75a597"><path d="M 311 0 L 334 0 L 334 23 L 311 23 Z M 311 0 " clip-rule="nonzero"/></clipPath><clipPath id="fc16461f08"><path d="M 0 245 L 33 245 L 33 329 L 0 329 Z M 0 245 " clip-rule="nonzero"/></clipPath><clipPath id="22590d2aa6"><path d="M 0 208 L 27 208 L 27 243 L 0 243 Z M 0 208 " clip-rule="nonzero"/></clipPath><clipPath id="d38aae5622"><rect x="0" width="375" y="0" height="375"/></clipPath></defs><rect x="-37.5" width="450" fill="#ffffff" y="-37.499999" height="449.999989" fill-opacity="1"/><rect x="-37.5" width="450" fill="#3498db" y="-37.499999" height="449.999989" fill-opacity="1"/><g mask="url(#06d1b47cff)"><g transform="matrix(1, 0, 0, 1, 0, 0)"><g clip-path="url(#d38aae5622)"><g clip-path="url(#86e9127698)"><path fill="#efefef" d="M 91.144531 421.109375 C 94.640625 422.644531 97.921875 424.664062 100.894531 427.125 C 103.378906 429.183594 106.03125 430.960938 109.207031 431.882812 C 114.449219 433.40625 120.574219 431.964844 124.492188 428.148438 C 128.109375 424.625 129.78125 419.214844 128.785156 414.261719 C 127.226562 406.488281 120.828125 400.863281 120.28125 392.664062 C 119.78125 385.160156 121.105469 375.679688 112.6875 371.980469 C 104.269531 368.285156 98.195312 375.675781 92.339844 380.390625 C 85.9375 385.539062 77.46875 384.632812 70.699219 388.742188 C 66.382812 391.363281 63.539062 396.257812 63.394531 401.308594 C 63.238281 406.78125 66.324219 412.265625 70.996094 415.097656 C 73.824219 416.8125 76.925781 417.5625 80.121094 418 C 83.945312 418.523438 87.648438 419.570312 91.144531 421.109375 Z M 91.144531 421.109375 " fill-opacity="1" fill-rule="nonzero"/></g><g clip-path="url(#be3a66c62a)"><path fill="#efefef" d="M 85.980469 370.898438 C 85.976562 370.90625 85.972656 370.914062 85.96875 370.921875 C 82.308594 377.644531 70.773438 378.1875 66.253906 372.003906 C 64.246094 369.253906 64.253906 365.515625 64.863281 362.160156 C 65.476562 358.769531 66.613281 355.472656 68.226562 352.425781 C 69.621094 349.785156 71.449219 347.261719 74.019531 345.746094 C 76.359375 344.367188 79.503906 343.890625 81.949219 345.265625 C 83.410156 346.085938 84.484375 347.476562 85.207031 348.988281 C 88.230469 355.28125 89.40625 364.578125 85.980469 370.898438 Z M 85.980469 370.898438 " fill-opacity="1" fill-rule="nonzero"/></g><path fill="#efefef" d="M 94.417969 347.109375 C 94.5 346.460938 94.617188 345.8125 94.773438 345.183594 C 96.148438 339.613281 99.511719 333.742188 104.160156 330.195312 C 108.027344 327.242188 113.808594 324.960938 117.804688 328.703125 C 124.101562 334.59375 121.707031 348.660156 116.773438 354.8125 C 113.929688 358.363281 108.632812 360.378906 104.195312 360.042969 C 101.335938 359.828125 98.546875 358.574219 96.726562 356.414062 C 94.617188 353.902344 94.003906 350.4375 94.417969 347.109375 Z M 94.417969 347.109375 " fill-opacity="1" fill-rule="nonzero"/><path fill="#efefef" d="M 144.8125 369.625 C 145.238281 369.128906 145.636719 368.609375 146.003906 368.070312 C 149.21875 363.320312 151.324219 356.890625 150.847656 351.058594 C 150.449219 346.207031 148.277344 340.382812 142.820312 339.910156 C 134.230469 339.171875 125.394531 350.371094 124.128906 358.15625 C 123.398438 362.648438 125.449219 367.933594 128.667969 371.011719 C 130.738281 372.992188 133.535156 374.230469 136.355469 374.132812 C 139.636719 374.027344 142.617188 372.160156 144.8125 369.625 Z M 144.8125 369.625 " fill-opacity="1" fill-rule="nonzero"/><g clip-path="url(#3cdfb0f1ec)"><path fill="#efefef" d="M 205.617188 374.511719 C 207.722656 373.820312 209.921875 373.421875 212.15625 373.335938 C 214.023438 373.261719 215.859375 373.003906 217.585938 372.171875 C 220.441406 370.796875 222.53125 367.804688 222.746094 364.636719 C 222.945312 361.714844 221.574219 358.726562 219.230469 356.972656 C 215.550781 354.21875 210.613281 354.269531 207.207031 350.9375 C 204.085938 347.890625 200.996094 343.28125 195.929688 344.945312 C 190.863281 346.609375 191.097656 352.15625 190.390625 356.460938 C 189.617188 361.164062 185.605469 364.054688 184.273438 368.453125 C 183.421875 371.257812 184.085938 374.472656 185.976562 376.710938 C 188.023438 379.132812 191.476562 380.308594 194.589844 379.722656 C 196.476562 379.367188 198.105469 378.488281 199.652344 377.441406 C 201.507812 376.183594 203.515625 375.203125 205.617188 374.511719 Z M 205.617188 374.511719 " fill-opacity="1" fill-rule="nonzero"/></g><path fill="#efefef" d="M 183.972656 354.824219 C 183.972656 354.828125 183.976562 354.832031 183.976562 354.835938 C 184.996094 359.160156 180.222656 363.863281 175.878906 362.941406 C 173.945312 362.53125 172.507812 360.914062 171.472656 359.230469 C 170.425781 357.527344 169.644531 355.664062 169.160156 353.722656 C 168.742188 352.039062 168.554688 350.242188 169.078125 348.59375 C 169.558594 347.089844 170.730469 345.667969 172.320312 345.3125 C 173.269531 345.101562 174.269531 345.285156 175.167969 345.65625 C 178.90625 347.207031 183.007812 350.765625 183.972656 354.824219 Z M 183.972656 354.824219 " fill-opacity="1" fill-rule="nonzero"/><path fill="#efefef" d="M 211.484375 346.214844 C 211.484375 346.21875 211.484375 346.222656 211.488281 346.230469 C 212.960938 350.417969 219.515625 351.800781 222.675781 348.679688 C 224.082031 347.292969 224.421875 345.152344 224.386719 343.175781 C 224.347656 341.175781 224.003906 339.183594 223.363281 337.289062 C 222.808594 335.648438 221.996094 334.035156 220.664062 332.925781 C 219.453125 331.917969 217.699219 331.355469 216.167969 331.914062 C 215.257812 332.25 214.515625 332.945312 213.960938 333.742188 C 211.644531 337.066406 210.109375 342.277344 211.484375 346.214844 Z M 211.484375 346.214844 " fill-opacity="1" fill-rule="nonzero"/><path fill="#efefef" d="M 178.417969 341.28125 C 178.203125 340.96875 178.003906 340.640625 177.828125 340.308594 C 176.265625 337.371094 175.449219 333.53125 176.085938 330.199219 C 176.617188 327.425781 178.230469 324.199219 181.40625 324.269531 C 186.402344 324.375 190.808594 331.378906 191.054688 335.949219 C 191.199219 338.582031 189.691406 341.503906 187.644531 343.078125 C 186.328125 344.09375 184.636719 344.632812 183.015625 344.402344 C 181.132812 344.136719 179.527344 342.878906 178.417969 341.28125 Z M 178.417969 341.28125 " fill-opacity="1" fill-rule="nonzero"/><path fill="#efefef" d="M 208.894531 331.484375 C 208.886719 331.105469 208.859375 330.726562 208.808594 330.351562 C 208.359375 327.054688 206.78125 323.460938 204.320312 321.125 C 202.273438 319.183594 199.082031 317.511719 196.542969 319.421875 C 192.550781 322.429688 193.058594 330.6875 195.523438 334.542969 C 196.945312 336.765625 199.875 338.253906 202.457031 338.335938 C 204.117188 338.390625 205.804688 337.839844 206.984375 336.707031 C 208.359375 335.390625 208.925781 333.429688 208.894531 331.484375 Z M 208.894531 331.484375 " fill-opacity="1" fill-rule="nonzero"/><path fill="#efefef" d="M 259.601562 372.421875 C 259.59375 372.425781 259.589844 372.429688 259.582031 372.433594 C 254.273438 376.429688 244.957031 372.703125 243.609375 366.183594 C 243.011719 363.285156 244.363281 360.335938 246.050781 357.90625 C 247.753906 355.445312 249.839844 353.25 252.207031 351.421875 C 254.261719 349.835938 256.613281 348.5 259.191406 348.230469 C 261.539062 347.980469 264.191406 348.738281 265.632812 350.707031 C 266.492188 351.882812 266.839844 353.367188 266.871094 354.820312 C 266.996094 360.886719 264.582031 368.660156 259.601562 372.421875 Z M 259.601562 372.421875 " fill-opacity="1" fill-rule="nonzero"/><path fill="#efefef" d="M 274.824219 356.65625 C 275.121094 356.171875 275.449219 355.703125 275.800781 355.261719 C 278.886719 351.351562 283.65625 347.925781 288.609375 346.796875 C 292.726562 345.859375 298.117188 346.136719 299.929688 350.535156 C 302.789062 357.460938 295.835938 367.714844 289.726562 370.800781 C 286.199219 372.582031 281.289062 372.265625 277.902344 370.402344 C 275.71875 369.203125 273.964844 367.207031 273.304688 364.84375 C 272.535156 362.097656 273.300781 359.136719 274.824219 356.65625 Z M 274.824219 356.65625 " fill-opacity="1" fill-rule="nonzero"/><g clip-path="url(#0ab32e5fea)"><path fill="#efefef" d="M 306.558594 392.609375 C 307.074219 392.375 307.578125 392.105469 308.0625 391.808594 C 312.3125 389.214844 316.285156 384.890625 318.007812 380.109375 C 319.4375 376.132812 319.816406 370.742188 315.671875 368.40625 C 309.148438 364.730469 298.136719 370.394531 294.335938 376.09375 C 292.144531 379.378906 291.863281 384.296875 293.300781 387.890625 C 294.222656 390.199219 295.992188 392.1875 298.253906 393.128906 C 300.886719 394.222656 303.914062 393.824219 306.558594 392.609375 Z M 306.558594 392.609375 " fill-opacity="1" fill-rule="nonzero"/></g><g clip-path="url(#e3c70bba43)"><path fill="#efefef" d="M 20.433594 373.582031 C 21.621094 374.660156 22.65625 375.902344 23.511719 377.277344 C 24.226562 378.429688 25.042969 379.488281 26.183594 380.28125 C 28.066406 381.585938 30.695312 381.832031 32.765625 380.835938 C 34.671875 379.917969 36.058594 377.988281 36.324219 375.882812 C 36.738281 372.582031 34.941406 369.492188 35.820312 366.15625 C 36.621094 363.101562 38.410156 359.507812 35.554688 356.910156 C 32.699219 354.316406 29.296875 356.445312 26.335938 357.539062 C 23.105469 358.734375 19.855469 357.242188 16.613281 357.972656 C 14.546875 358.4375 12.761719 360.007812 12.03125 361.996094 C 11.238281 364.152344 11.738281 366.75 13.21875 368.5 C 14.113281 369.558594 15.25 370.273438 16.460938 370.871094 C 17.914062 371.589844 19.246094 372.503906 20.433594 373.582031 Z M 20.433594 373.582031 " fill-opacity="1" fill-rule="nonzero"/></g><path fill="#efefef" d="M 25.074219 352.914062 C 25.070312 352.914062 25.066406 352.917969 25.066406 352.921875 C 22.710938 355.105469 18.050781 353.78125 17.074219 350.71875 C 16.644531 349.355469 17.144531 347.871094 17.832031 346.617188 C 18.53125 345.347656 19.421875 344.1875 20.46875 343.191406 C 21.378906 342.328125 22.441406 341.566406 23.667969 341.308594 C 24.78125 341.070312 26.09375 341.300781 26.886719 342.175781 C 27.355469 342.695312 27.597656 343.394531 27.6875 344.089844 C 28.050781 347 27.277344 350.855469 25.074219 352.914062 Z M 25.074219 352.914062 " fill-opacity="1" fill-rule="nonzero"/><g clip-path="url(#c3cc99861e)"><path fill="#efefef" d="M 40.316406 367.160156 C 40.316406 367.164062 40.3125 367.164062 40.308594 367.167969 C 38.203125 369.589844 39.675781 374.214844 42.769531 375.089844 C 44.144531 375.476562 45.609375 374.925781 46.839844 374.199219 C 48.082031 373.460938 49.210938 372.53125 50.175781 371.449219 C 51.007812 370.515625 51.734375 369.425781 51.953125 368.191406 C 52.152344 367.066406 51.878906 365.761719 50.980469 365 C 50.445312 364.542969 49.742188 364.324219 49.042969 364.261719 C 46.125 363.988281 42.300781 364.886719 40.316406 367.160156 Z M 40.316406 367.160156 " fill-opacity="1" fill-rule="nonzero"/></g><path fill="#efefef" d="M 31.601562 344.574219 C 31.71875 344.328125 31.851562 344.085938 32 343.855469 C 33.289062 341.820312 35.410156 339.9375 37.730469 339.144531 C 39.664062 338.488281 42.269531 338.351562 43.359375 340.375 C 45.082031 343.558594 42.253906 348.835938 39.46875 350.625 C 37.863281 351.65625 35.488281 351.753906 33.765625 351.027344 C 32.660156 350.558594 31.714844 349.6875 31.28125 348.585938 C 30.773438 347.304688 30.992188 345.84375 31.601562 344.574219 Z M 31.601562 344.574219 " fill-opacity="1" fill-rule="nonzero"/><path fill="#efefef" d="M 48.652344 360.261719 C 48.886719 360.125 49.117188 359.96875 49.332031 359.804688 C 51.246094 358.34375 52.941406 356.066406 53.527344 353.683594 C 54.015625 351.699219 53.929688 349.089844 51.820312 348.175781 C 48.5 346.734375 43.492188 350.007812 41.949219 352.9375 C 41.0625 354.628906 41.171875 357.003906 42.042969 358.660156 C 42.601562 359.722656 43.550781 360.589844 44.6875 360.929688 C 46.003906 361.324219 47.441406 360.980469 48.652344 360.261719 Z M 48.652344 360.261719 " fill-opacity="1" fill-rule="nonzero"/><path fill="#efefef" d="M 162.625 240.238281 C 159.5625 239.113281 156.65625 237.5625 153.988281 235.617188 C 151.761719 233.992188 149.402344 232.613281 146.644531 231.992188 C 142.089844 230.96875 136.9375 232.519531 133.796875 235.984375 C 130.894531 239.183594 129.75 243.890625 130.859375 248.066406 C 132.601562 254.617188 138.359375 259.078125 139.253906 266.050781 C 140.074219 272.429688 139.441406 280.589844 146.824219 283.300781 C 154.203125 286.015625 158.996094 279.386719 163.75 275.054688 C 168.941406 270.320312 176.214844 270.652344 181.777344 266.785156 C 185.324219 264.320312 187.496094 259.992188 187.351562 255.675781 C 187.199219 250.996094 184.273438 246.476562 180.140625 244.304688 C 177.636719 242.992188 174.949219 242.515625 172.199219 242.3125 C 168.910156 242.066406 165.691406 241.367188 162.625 240.238281 Z M 162.625 240.238281 " fill-opacity="1" fill-rule="nonzero"/><path fill="#efefef" d="M 169.671875 282.820312 C 169.675781 282.8125 169.679688 282.808594 169.683594 282.800781 C 172.453125 276.867188 182.269531 275.796875 186.453125 280.839844 C 188.3125 283.082031 188.5 286.269531 188.160156 289.164062 C 187.8125 292.09375 187.015625 294.964844 185.800781 297.652344 C 184.746094 299.980469 183.320312 302.230469 181.207031 303.660156 C 179.28125 304.960938 176.621094 305.53125 174.460938 304.484375 C 173.171875 303.863281 172.183594 302.730469 171.484375 301.480469 C 168.574219 296.269531 167.082031 288.394531 169.671875 282.820312 Z M 169.671875 282.820312 " fill-opacity="1" fill-rule="nonzero"/><path fill="#efefef" d="M 129.992188 267.597656 C 129.996094 267.589844 129.996094 267.585938 130 267.578125 C 132.125 261.386719 125.808594 253.785156 119.300781 254.503906 C 116.40625 254.820312 114.058594 256.984375 112.292969 259.304688 C 110.507812 261.648438 109.089844 264.273438 108.097656 267.046875 C 107.238281 269.453125 106.703125 272.0625 107.230469 274.5625 C 107.714844 276.839844 109.230469 279.097656 111.507812 279.847656 C 112.867188 280.296875 114.363281 280.171875 115.734375 279.757812 C 121.445312 278.035156 127.984375 273.410156 129.992188 267.597656 Z M 129.992188 267.597656 " fill-opacity="1" fill-rule="nonzero"/><path fill="#efefef" d="M 163.722656 303.566406 C 163.6875 304.128906 163.621094 304.683594 163.519531 305.234375 C 162.640625 310.058594 160.078125 315.246094 156.296875 318.519531 C 153.152344 321.242188 148.339844 323.496094 144.730469 320.511719 C 139.046875 315.8125 140.351562 303.679688 144.238281 298.171875 C 146.480469 294.992188 150.894531 292.992188 154.699219 293.042969 C 157.148438 293.078125 159.597656 294 161.261719 295.75 C 163.199219 297.78125 163.902344 300.707031 163.722656 303.566406 Z M 163.722656 303.566406 " fill-opacity="1" fill-rule="nonzero"/><path fill="#efefef" d="M 119.527344 287.003906 C 119.1875 287.449219 118.875 287.917969 118.59375 288.394531 C 116.097656 292.617188 114.640625 298.21875 115.355469 303.167969 C 115.949219 307.289062 118.109375 312.148438 122.789062 312.261719 C 130.160156 312.4375 137.113281 302.417969 137.785156 295.703125 C 138.171875 291.832031 136.144531 287.429688 133.234375 284.972656 C 131.363281 283.390625 128.910156 282.480469 126.507812 282.710938 C 123.714844 282.976562 121.269531 284.726562 119.527344 287.003906 Z M 119.527344 287.003906 " fill-opacity="1" fill-rule="nonzero"/><path fill="#efefef" d="M 320.492188 314.347656 C 319.101562 316.828125 317.367188 319.109375 315.328125 321.128906 C 313.625 322.816406 312.113281 324.648438 311.199219 326.933594 C 309.6875 330.707031 310.300781 335.347656 312.835938 338.53125 C 315.175781 341.46875 319.054688 343.105469 322.789062 342.734375 C 328.652344 342.148438 333.277344 337.820312 339.382812 338.019531 C 344.96875 338.199219 351.878906 339.878906 355.230469 333.914062 C 358.585938 327.949219 353.566406 322.910156 350.511719 318.226562 C 347.175781 313.105469 348.46875 306.902344 345.925781 301.582031 C 344.304688 298.195312 340.894531 295.726562 337.171875 295.25 C 333.136719 294.730469 328.855469 296.613281 326.417969 299.867188 C 324.941406 301.835938 324.160156 304.078125 323.601562 306.414062 C 322.933594 309.207031 321.886719 311.871094 320.492188 314.347656 Z M 320.492188 314.347656 " fill-opacity="1" fill-rule="nonzero"/><g clip-path="url(#851cf70b9d)"><path fill="#efefef" d="M 357.996094 314.214844 C 357.988281 314.210938 357.984375 314.207031 357.980469 314.203125 C 353.277344 311 353.722656 302.414062 358.628906 299.519531 C 360.808594 298.234375 363.570312 298.515625 366.007812 299.210938 C 368.46875 299.917969 370.824219 301.003906 372.957031 302.417969 C 374.808594 303.648438 376.539062 305.1875 377.472656 307.203125 C 378.320312 309.039062 378.4375 311.398438 377.242188 313.113281 C 376.53125 314.132812 375.421875 314.824219 374.253906 315.25 C 369.378906 317.027344 362.414062 317.214844 357.996094 314.214844 Z M 357.996094 314.214844 " fill-opacity="1" fill-rule="nonzero"/></g><path fill="#efefef" d="M 339.421875 346.195312 C 339.417969 346.191406 339.410156 346.1875 339.40625 346.183594 C 334.390625 343.5 326.996094 347.871094 326.707031 353.5625 C 326.578125 356.089844 328.105469 358.410156 329.847656 360.25 C 331.613281 362.109375 333.664062 363.691406 335.90625 364.929688 C 337.851562 366.003906 340.015625 366.828125 342.234375 366.71875 C 344.25 366.621094 346.398438 365.632812 347.359375 363.78125 C 347.933594 362.675781 348.035156 361.371094 347.871094 360.136719 C 347.183594 354.988281 344.128906 348.726562 339.421875 346.195312 Z M 339.421875 346.195312 " fill-opacity="1" fill-rule="nonzero"/><g clip-path="url(#93a2cc3c89)"><path fill="#efefef" d="M 374.964844 322.210938 C 375.4375 322.320312 375.90625 322.453125 376.363281 322.617188 C 380.378906 324.042969 384.472656 326.964844 386.753906 330.671875 C 388.652344 333.75 389.914062 338.199219 386.855469 340.886719 C 382.035156 345.117188 371.8125 342.308594 367.625 338.203125 C 365.210938 335.835938 364.109375 331.765625 364.683594 328.503906 C 365.050781 326.402344 366.183594 324.425781 367.914062 323.238281 C 369.925781 321.859375 372.535156 321.660156 374.964844 322.210938 Z M 374.964844 322.210938 " fill-opacity="1" fill-rule="nonzero"/></g><g clip-path="url(#c9349e79b7)"><path fill="#efefef" d="M 354.613281 357.882812 C 354.949219 358.238281 355.304688 358.570312 355.675781 358.878906 C 358.953125 361.609375 363.550781 363.644531 367.898438 363.71875 C 371.511719 363.777344 375.980469 362.597656 376.726562 358.589844 C 377.90625 352.285156 370.277344 344.914062 364.613281 343.40625 C 361.347656 342.535156 357.289062 343.664062 354.777344 345.824219 C 353.160156 347.210938 352.039062 349.191406 351.902344 351.289062 C 351.742188 353.726562 352.902344 356.070312 354.613281 357.882812 Z M 354.613281 357.882812 " fill-opacity="1" fill-rule="nonzero"/></g><g clip-path="url(#e4c3a176cb)"><path fill="#efefef" d="M 380.464844 280.679688 C 380.125 280.636719 379.785156 280.574219 379.453125 280.492188 C 376.527344 279.78125 373.441406 278.019531 371.570312 275.578125 C 370.015625 273.546875 368.808594 270.511719 370.769531 268.402344 C 373.851562 265.082031 381.242188 266.320312 384.480469 268.90625 C 386.347656 270.398438 387.410156 273.183594 387.242188 275.519531 C 387.132812 277.019531 386.480469 278.492188 385.347656 279.449219 C 384.03125 280.566406 382.214844 280.890625 380.464844 280.679688 Z M 380.464844 280.679688 " fill-opacity="1" fill-rule="nonzero"/></g><path fill="#efefef" d="M 343.171875 271.109375 C 345.03125 271.316406 346.863281 271.78125 348.613281 272.5 C 350.074219 273.101562 351.578125 273.542969 353.199219 273.511719 C 355.875 273.457031 358.53125 271.886719 359.804688 269.527344 C 360.984375 267.347656 360.976562 264.574219 359.789062 262.398438 C 357.921875 258.992188 354.105469 257.292969 352.652344 253.535156 C 351.324219 250.097656 350.558594 245.46875 346.078125 244.96875 C 341.597656 244.46875 339.835938 248.816406 337.78125 251.878906 C 335.539062 255.226562 331.445312 256.039062 328.875 258.957031 C 327.238281 260.8125 326.621094 263.519531 327.292969 265.90625 C 328.019531 268.488281 330.265625 270.605469 332.863281 271.246094 C 334.4375 271.636719 336 271.53125 337.558594 271.269531 C 339.421875 270.953125 341.3125 270.902344 343.171875 271.109375 Z M 343.171875 271.109375 " fill-opacity="1" fill-rule="nonzero"/><path fill="#efefef" d="M 333.421875 248.367188 C 333.421875 248.371094 333.421875 248.375 333.417969 248.378906 C 332.6875 252.0625 327.367188 254.003906 324.351562 251.769531 C 323.007812 250.777344 322.46875 249.027344 322.261719 247.367188 C 322.054688 245.691406 322.105469 243.984375 322.414062 242.320312 C 322.683594 240.878906 323.167969 239.433594 324.148438 238.347656 C 325.042969 237.359375 326.445312 236.675781 327.792969 236.960938 C 328.59375 237.132812 329.300781 237.625 329.859375 238.226562 C 332.195312 240.730469 334.101562 244.910156 333.421875 248.367188 Z M 333.421875 248.367188 " fill-opacity="1" fill-rule="nonzero"/><path fill="#efefef" d="M 357.597656 251.40625 C 357.597656 251.410156 357.597656 251.414062 357.597656 251.417969 C 357.261719 255.15625 361.816406 258.519531 365.34375 257.230469 C 366.910156 256.65625 367.921875 255.128906 368.585938 253.597656 C 369.257812 252.046875 369.691406 250.390625 369.863281 248.710938 C 370.011719 247.253906 369.953125 245.726562 369.316406 244.40625 C 368.738281 243.207031 367.585938 242.15625 366.214844 242.050781 C 365.394531 241.988281 364.578125 242.261719 363.875 242.679688 C 360.929688 244.421875 357.921875 247.894531 357.597656 251.40625 Z M 357.597656 251.40625 " fill-opacity="1" fill-rule="nonzero"/><path fill="#efefef" d="M 333.894531 236 C 333.839844 235.683594 333.800781 235.363281 333.78125 235.046875 C 333.609375 232.238281 334.328125 229 335.984375 226.660156 C 337.363281 224.710938 339.734375 222.796875 342.152344 223.964844 C 345.960938 225.800781 346.894531 232.734375 345.484375 236.335938 C 344.671875 238.414062 342.488281 240.128906 340.359375 240.625 C 338.992188 240.941406 337.503906 240.761719 336.335938 240.015625 C 334.980469 239.152344 334.1875 237.617188 333.894531 236 Z M 333.894531 236 " fill-opacity="1" fill-rule="nonzero"/><path fill="#efefef" d="M 360.769531 239.164062 C 360.898438 238.871094 361.007812 238.566406 361.097656 238.261719 C 361.910156 235.570312 361.957031 232.253906 360.882812 229.59375 C 359.988281 227.378906 358.121094 224.972656 355.496094 225.550781 C 351.371094 226.460938 348.867188 232.996094 349.414062 236.824219 C 349.726562 239.03125 351.460938 241.207031 353.414062 242.175781 C 354.675781 242.800781 356.164062 242.96875 357.472656 242.511719 C 358.988281 241.980469 360.113281 240.671875 360.769531 239.164062 Z M 360.769531 239.164062 " fill-opacity="1" fill-rule="nonzero"/><g clip-path="url(#b58af15ce4)"><path fill="#efefef" d="M 358.210938 189.445312 C 357.976562 192.449219 357.328125 195.417969 356.269531 198.269531 C 355.382812 200.652344 354.75 203.089844 354.886719 205.695312 C 355.117188 209.996094 357.777344 214.1875 361.632812 216.113281 C 365.195312 217.890625 369.648438 217.730469 373.074219 215.707031 C 378.449219 212.527344 380.96875 206.296875 386.921875 203.761719 C 392.375 201.441406 399.765625 199.96875 400.328125 192.734375 C 400.894531 185.503906 393.820312 182.902344 388.796875 179.761719 C 383.304688 176.332031 381.78125 169.789062 376.964844 165.8125 C 373.894531 163.277344 369.519531 162.429688 365.726562 163.636719 C 361.617188 164.9375 358.339844 168.664062 357.445312 172.875 C 356.90625 175.429688 357.15625 177.933594 357.660156 180.425781 C 358.261719 183.410156 358.445312 186.441406 358.210938 189.445312 Z M 358.210938 189.445312 " fill-opacity="1" fill-rule="nonzero"/></g><path fill="#efefef" d="M 118.609375 159.941406 C 115.972656 159.734375 113.371094 159.164062 110.867188 158.230469 C 108.773438 157.453125 106.636719 156.898438 104.347656 157.019531 C 100.574219 157.21875 96.898438 159.558594 95.210938 162.949219 C 93.648438 166.078125 93.789062 169.996094 95.566406 173.007812 C 98.355469 177.730469 103.820312 179.945312 106.046875 185.179688 C 108.082031 189.972656 109.375 196.46875 115.722656 196.964844 C 122.066406 197.460938 124.351562 191.242188 127.105469 186.824219 C 130.117188 182 135.859375 180.660156 139.347656 176.425781 C 141.570312 173.726562 142.3125 169.878906 141.257812 166.546875 C 140.113281 162.933594 136.84375 160.054688 133.148438 159.269531 C 130.910156 158.792969 128.710938 159.011719 126.523438 159.457031 C 123.90625 159.984375 121.242188 160.144531 118.609375 159.941406 Z M 118.609375 159.941406 " fill-opacity="1" fill-rule="nonzero"/><path fill="#efefef" d="M 133.421875 191.578125 C 133.425781 191.574219 133.425781 191.566406 133.425781 191.5625 C 134.285156 186.332031 141.703125 183.34375 146.066406 186.355469 C 148.003906 187.691406 148.851562 190.136719 149.21875 192.46875 C 149.589844 194.824219 149.597656 197.238281 149.238281 199.597656 C 148.925781 201.644531 148.308594 203.710938 146.972656 205.289062 C 145.757812 206.722656 143.8125 207.75 141.898438 207.410156 C 140.757812 207.207031 139.738281 206.542969 138.921875 205.722656 C 135.511719 202.300781 132.625 196.488281 133.421875 191.578125 Z M 133.421875 191.578125 " fill-opacity="1" fill-rule="nonzero"/><path fill="#efefef" d="M 99.167969 188.417969 C 99.167969 188.414062 99.167969 188.40625 99.167969 188.402344 C 99.46875 183.109375 92.882812 178.574219 87.96875 180.558594 C 85.78125 181.441406 84.425781 183.644531 83.558594 185.839844 C 82.683594 188.058594 82.148438 190.414062 81.984375 192.792969 C 81.84375 194.855469 81.996094 197.007812 82.957031 198.839844 C 83.828125 200.507812 85.503906 201.933594 87.445312 202.019531 C 88.601562 202.070312 89.738281 201.644531 90.71875 201.023438 C 94.792969 198.425781 98.875 193.386719 99.167969 188.417969 Z M 99.167969 188.417969 " fill-opacity="1" fill-rule="nonzero"/><path fill="#efefef" d="M 133.328125 209.050781 C 133.425781 209.496094 133.492188 209.945312 133.535156 210.394531 C 133.90625 214.347656 133.046875 218.953125 130.816406 222.332031 C 128.960938 225.144531 125.703125 227.953125 122.234375 226.421875 C 116.777344 224.007812 115.140625 214.265625 116.960938 209.121094 C 118.011719 206.152344 121.015625 203.625 123.992188 202.832031 C 125.910156 202.320312 128.019531 202.5 129.699219 203.496094 C 131.652344 204.65625 132.839844 206.78125 133.328125 209.050781 Z M 133.328125 209.050781 " fill-opacity="1" fill-rule="nonzero"/><path fill="#efefef" d="M 95.261719 205.839844 C 95.09375 206.261719 94.953125 206.691406 94.835938 207.128906 C 93.816406 210.964844 93.90625 215.648438 95.546875 219.351562 C 96.914062 222.429688 99.660156 225.742188 103.332031 224.804688 C 109.113281 223.328125 112.339844 213.992188 111.394531 208.613281 C 110.847656 205.511719 108.304688 202.523438 105.5 201.246094 C 103.691406 200.425781 101.582031 200.253906 99.761719 200.960938 C 97.640625 201.78125 96.117188 203.679688 95.261719 205.839844 Z M 95.261719 205.839844 " fill-opacity="1" fill-rule="nonzero"/><path fill="#efefef" d="M 244.613281 57.59375 C 242.953125 57.464844 241.316406 57.105469 239.742188 56.519531 C 238.425781 56.03125 237.078125 55.679688 235.640625 55.757812 C 233.269531 55.882812 230.957031 57.355469 229.894531 59.488281 C 228.910156 61.457031 229 63.921875 230.117188 65.816406 C 231.871094 68.785156 235.308594 70.179688 236.710938 73.472656 C 237.992188 76.484375 238.804688 80.574219 242.796875 80.886719 C 246.785156 81.195312 248.222656 77.285156 249.957031 74.507812 C 251.851562 71.472656 255.460938 70.628906 257.65625 67.964844 C 259.054688 66.269531 259.523438 63.847656 258.859375 61.75 C 258.136719 59.480469 256.082031 57.667969 253.757812 57.171875 C 252.347656 56.875 250.964844 57.011719 249.589844 57.289062 C 247.941406 57.625 246.269531 57.726562 244.613281 57.59375 Z M 244.613281 57.59375 " fill-opacity="1" fill-rule="nonzero"/><path fill="#efefef" d="M 253.929688 77.496094 C 253.929688 77.492188 253.929688 77.488281 253.933594 77.484375 C 254.472656 74.195312 259.136719 72.316406 261.882812 74.210938 C 263.101562 75.050781 263.632812 76.589844 263.867188 78.054688 C 264.097656 79.539062 264.101562 81.058594 263.878906 82.542969 C 263.683594 83.828125 263.292969 85.128906 262.453125 86.121094 C 261.6875 87.023438 260.464844 87.667969 259.261719 87.457031 C 258.542969 87.328125 257.902344 86.910156 257.386719 86.394531 C 255.242188 84.242188 253.429688 80.585938 253.929688 77.496094 Z M 253.929688 77.496094 " fill-opacity="1" fill-rule="nonzero"/><path fill="#efefef" d="M 232.382812 75.507812 C 232.382812 75.503906 232.382812 75.503906 232.382812 75.5 C 232.570312 72.167969 228.429688 69.316406 225.339844 70.566406 C 223.964844 71.121094 223.109375 72.503906 222.5625 73.886719 C 222.011719 75.28125 221.679688 76.761719 221.574219 78.261719 C 221.484375 79.558594 221.582031 80.910156 222.183594 82.0625 C 222.734375 83.113281 223.789062 84.011719 225.007812 84.066406 C 225.738281 84.097656 226.453125 83.828125 227.066406 83.4375 C 229.628906 81.804688 232.199219 78.632812 232.382812 75.507812 Z M 232.382812 75.507812 " fill-opacity="1" fill-rule="nonzero"/><path fill="#efefef" d="M 253.871094 88.488281 C 253.929688 88.765625 253.972656 89.050781 254 89.332031 C 254.234375 91.820312 253.691406 94.714844 252.289062 96.839844 C 251.121094 98.609375 249.074219 100.378906 246.894531 99.414062 C 243.460938 97.894531 242.429688 91.769531 243.574219 88.53125 C 244.238281 86.664062 246.125 85.074219 247.996094 84.574219 C 249.203125 84.253906 250.53125 84.367188 251.585938 84.992188 C 252.816406 85.722656 253.5625 87.058594 253.871094 88.488281 Z M 253.871094 88.488281 " fill-opacity="1" fill-rule="nonzero"/><path fill="#efefef" d="M 229.925781 86.464844 C 229.820312 86.730469 229.730469 87.003906 229.660156 87.277344 C 229.019531 89.691406 229.074219 92.636719 230.105469 94.964844 C 230.964844 96.902344 232.691406 98.988281 235.003906 98.394531 C 238.640625 97.464844 240.667969 91.59375 240.074219 88.210938 C 239.730469 86.261719 238.128906 84.382812 236.367188 83.578125 C 235.230469 83.0625 233.902344 82.953125 232.753906 83.398438 C 231.421875 83.914062 230.464844 85.109375 229.925781 86.464844 Z M 229.925781 86.464844 " fill-opacity="1" fill-rule="nonzero"/><path fill="#efefef" d="M 132.355469 120.09375 C 133.777344 122.945312 134.800781 125.988281 135.394531 129.152344 C 135.886719 131.796875 136.640625 134.351562 138.183594 136.636719 C 140.730469 140.414062 145.421875 142.757812 149.964844 142.402344 C 154.160156 142.078125 158.113281 139.503906 160.113281 135.800781 C 163.257812 129.988281 162.152344 122.972656 166.171875 117.425781 C 169.851562 112.351562 175.75 106.988281 172.328125 100.125 C 168.90625 93.261719 161.078125 94.753906 154.816406 94.648438 C 147.972656 94.53125 143.03125 89.429688 136.503906 88.449219 C 132.339844 87.824219 127.910156 89.441406 125.128906 92.597656 C 122.113281 96.019531 121.167969 101.183594 122.648438 105.488281 C 123.546875 108.097656 125.136719 110.234375 126.949219 112.21875 C 129.121094 114.59375 130.933594 117.246094 132.355469 120.09375 Z M 132.355469 120.09375 " fill-opacity="1" fill-rule="nonzero"/><path fill="#efefef" d="M 155.800781 85.175781 C 155.792969 85.179688 155.785156 85.179688 155.78125 85.183594 C 149.855469 87.535156 142.171875 81.726562 142.574219 75.351562 C 142.753906 72.515625 144.75 70.128906 146.925781 68.304688 C 149.125 66.460938 151.613281 64.957031 154.269531 63.863281 C 156.570312 62.917969 159.085938 62.277344 161.539062 62.675781 C 163.773438 63.042969 166.039062 64.417969 166.875 66.605469 C 167.375 67.90625 167.320312 69.371094 166.980469 70.726562 C 165.5625 76.371094 161.359375 82.957031 155.800781 85.175781 Z M 155.800781 85.175781 " fill-opacity="1" fill-rule="nonzero"/><path fill="#efefef" d="M 173.777344 122.527344 C 173.773438 122.53125 173.765625 122.53125 173.761719 122.535156 C 168.117188 125.503906 167.519531 135.125 172.613281 138.96875 C 174.878906 140.679688 177.992188 140.714844 180.792969 140.253906 C 183.625 139.78125 186.382812 138.871094 188.941406 137.566406 C 191.15625 136.433594 193.28125 134.941406 194.574219 132.816406 C 195.753906 130.878906 196.1875 128.265625 195.070312 126.207031 C 194.40625 124.980469 193.261719 124.066406 192.015625 123.441406 C 186.8125 120.84375 179.082031 119.746094 173.777344 122.527344 Z M 173.777344 122.527344 " fill-opacity="1" fill-rule="nonzero"/><path fill="#efefef" d="M 173.878906 74.441406 C 174.277344 74.066406 174.699219 73.71875 175.136719 73.394531 C 178.980469 70.558594 184.265625 68.597656 189.132812 68.804688 C 193.183594 68.980469 198.101562 70.601562 198.667969 75.132812 C 199.5625 82.269531 190.53125 90 184.09375 91.308594 C 180.382812 92.0625 175.917969 90.527344 173.25 87.945312 C 171.535156 86.28125 170.414062 83.988281 170.402344 81.632812 C 170.386719 78.898438 171.839844 76.351562 173.878906 74.441406 Z M 173.878906 74.441406 " fill-opacity="1" fill-rule="nonzero"/><path fill="#efefef" d="M 194.164062 115.761719 C 194.703125 115.671875 195.234375 115.550781 195.753906 115.402344 C 200.347656 114.078125 205.121094 111.082031 207.921875 107.089844 C 210.25 103.769531 211.964844 98.878906 208.71875 95.667969 C 203.609375 90.609375 191.984375 93.0625 187.023438 97.375 C 184.164062 99.863281 182.660156 104.34375 183.082031 108.03125 C 183.355469 110.40625 184.488281 112.691406 186.34375 114.136719 C 188.503906 115.816406 191.40625 116.214844 194.164062 115.761719 Z M 194.164062 115.761719 " fill-opacity="1" fill-rule="nonzero"/><g clip-path="url(#7b22057d7c)"><path fill="#efefef" d="M -7.082031 59.109375 C -8.605469 61.183594 -10.414062 63.046875 -12.46875 64.640625 C -14.1875 65.972656 -15.742188 67.457031 -16.816406 69.410156 C -18.589844 72.636719 -18.542969 76.878906 -16.613281 80.015625 C -14.828125 82.914062 -11.519531 84.8125 -8.121094 84.886719 C -2.785156 85.003906 1.851562 81.617188 7.316406 82.464844 C 12.320312 83.238281 18.351562 85.507812 22.019531 80.507812 C 25.6875 75.511719 21.722656 70.429688 19.488281 65.882812 C 17.046875 60.914062 18.890625 55.472656 17.183594 50.414062 C 16.097656 47.1875 13.300781 44.59375 10.003906 43.757812 C 6.433594 42.851562 2.375 44.074219 -0.171875 46.730469 C -1.714844 48.339844 -2.664062 50.273438 -3.417969 52.3125 C -4.324219 54.75 -5.558594 57.035156 -7.082031 59.109375 Z M -7.082031 59.109375 " fill-opacity="1" fill-rule="nonzero"/></g><path fill="#efefef" d="M 26.660156 63.09375 C 26.65625 63.089844 26.648438 63.085938 26.644531 63.082031 C 22.765625 59.6875 24.105469 52.015625 28.835938 49.949219 C 30.9375 49.03125 33.390625 49.589844 35.503906 50.480469 C 37.640625 51.382812 39.640625 52.617188 41.40625 54.125 C 42.933594 55.433594 44.324219 57.003906 44.941406 58.921875 C 45.503906 60.664062 45.351562 62.800781 44.089844 64.210938 C 43.335938 65.050781 42.265625 65.550781 41.167969 65.808594 C 36.585938 66.871094 30.304688 66.277344 26.660156 63.09375 Z M 26.660156 63.09375 " fill-opacity="1" fill-rule="nonzero"/><g clip-path="url(#2edb3987e4)"><path fill="#efefef" d="M 6.460938 89.820312 C 6.457031 89.816406 6.449219 89.816406 6.445312 89.8125 C 2.230469 86.84375 -4.898438 89.96875 -5.78125 95.054688 C -6.175781 97.316406 -5.054688 99.566406 -3.6875 101.414062 C -2.304688 103.277344 -0.632812 104.925781 1.25 106.285156 C 2.882812 107.460938 4.738281 108.441406 6.742188 108.585938 C 8.570312 108.722656 10.609375 108.066406 11.675781 106.503906 C 12.3125 105.574219 12.546875 104.414062 12.53125 103.285156 C 12.480469 98.578125 10.414062 92.613281 6.460938 89.820312 Z M 6.460938 89.820312 " fill-opacity="1" fill-rule="nonzero"/></g><path fill="#efefef" d="M 41.042969 72.144531 C 41.460938 72.292969 41.867188 72.46875 42.257812 72.664062 C 45.714844 74.386719 49.078125 77.460938 50.722656 81.042969 C 52.09375 84.023438 52.742188 88.160156 49.695312 90.242188 C 44.898438 93.519531 36.011719 89.875 32.695312 85.722656 C 30.785156 83.328125 30.238281 79.546875 31.109375 76.675781 C 31.671875 74.828125 32.90625 73.175781 34.59375 72.296875 C 36.554688 71.273438 38.917969 71.382812 41.042969 72.144531 Z M 41.042969 72.144531 " fill-opacity="1" fill-rule="nonzero"/><path fill="#efefef" d="M 18.84375 101.996094 C 19.105469 102.351562 19.390625 102.691406 19.691406 103.011719 C 22.335938 105.824219 26.25 108.15625 30.152344 108.699219 C 33.398438 109.148438 37.542969 108.578125 38.65625 105.054688 C 40.402344 99.511719 34.347656 92.050781 29.417969 90.070312 C 26.578125 88.929688 22.804688 89.503906 20.308594 91.167969 C 18.703125 92.238281 17.476562 93.898438 17.125 95.769531 C 16.714844 97.941406 17.5 100.179688 18.84375 101.996094 Z M 18.84375 101.996094 " fill-opacity="1" fill-rule="nonzero"/><g clip-path="url(#20897e93ab)"><path fill="#efefef" d="M 12.445312 130.886719 C 10.390625 128.742188 8.636719 126.3125 7.234375 123.65625 C 6.0625 121.433594 4.6875 119.367188 2.679688 117.753906 C -0.632812 115.09375 -5.464844 114.300781 -9.414062 115.875 C -13.066406 117.328125 -15.878906 120.71875 -16.640625 124.574219 C -17.835938 130.621094 -14.910156 136.574219 -16.960938 142.628906 C -18.839844 148.171875 -22.617188 154.585938 -17.667969 159.753906 C -12.722656 164.925781 -6.15625 161.425781 -0.542969 159.789062 C 5.589844 157.996094 11.402344 161.179688 17.492188 160.246094 C 21.375 159.648438 24.878906 156.980469 26.484375 153.394531 C 28.226562 149.511719 27.644531 144.648438 25.132812 141.21875 C 23.609375 139.144531 21.605469 137.679688 19.441406 136.410156 C 16.847656 134.894531 14.5 133.035156 12.445312 130.886719 Z M 12.445312 130.886719 " fill-opacity="1" fill-rule="nonzero"/></g><g clip-path="url(#31c78c9f77)"><path fill="#efefef" d="M 1.195312 168.503906 C 1.203125 168.5 1.207031 168.496094 1.210938 168.492188 C 5.84375 164.753906 14.296875 167.804688 15.699219 173.597656 C 16.324219 176.175781 15.203125 178.855469 13.769531 181.085938 C 12.316406 183.339844 10.515625 185.367188 8.453125 187.074219 C 6.660156 188.554688 4.597656 189.824219 2.296875 190.148438 C 0.203125 190.4375 -2.195312 189.839844 -3.542969 188.125 C -4.347656 187.097656 -4.703125 185.78125 -4.777344 184.480469 C -5.074219 179.054688 -3.148438 172.023438 1.195312 168.503906 Z M 1.195312 168.503906 " fill-opacity="1" fill-rule="nonzero"/></g><path fill="#efefef" d="M 59.304688 138.363281 C 60.949219 140.082031 62.355469 142.027344 63.476562 144.152344 C 64.414062 145.929688 65.511719 147.585938 67.117188 148.875 C 69.769531 151.003906 73.636719 151.640625 76.796875 150.382812 C 79.71875 149.21875 81.972656 146.507812 82.582031 143.421875 C 83.539062 138.582031 81.199219 133.816406 82.839844 128.972656 C 84.34375 124.539062 87.367188 119.40625 83.410156 115.265625 C 79.449219 111.128906 74.195312 113.925781 69.703125 115.238281 C 64.796875 116.667969 60.140625 114.125 55.269531 114.871094 C 52.160156 115.347656 49.359375 117.480469 48.070312 120.351562 C 46.675781 123.457031 47.144531 127.351562 49.152344 130.09375 C 50.371094 131.757812 51.976562 132.929688 53.707031 133.941406 C 55.78125 135.15625 57.660156 136.644531 59.304688 138.363281 Z M 59.304688 138.363281 " fill-opacity="1" fill-rule="nonzero"/><path fill="#efefef" d="M 68.3125 108.261719 C 68.308594 108.265625 68.304688 108.269531 68.300781 108.273438 C 64.589844 111.261719 57.828125 108.820312 56.707031 104.183594 C 56.207031 102.121094 57.105469 99.976562 58.253906 98.191406 C 59.414062 96.386719 60.855469 94.765625 62.507812 93.398438 C 63.941406 92.210938 65.59375 91.199219 67.433594 90.941406 C 69.109375 90.707031 71.027344 91.183594 72.109375 92.558594 C 72.75 93.378906 73.035156 94.4375 73.09375 95.476562 C 73.332031 99.820312 71.789062 105.445312 68.3125 108.261719 Z M 68.3125 108.261719 " fill-opacity="1" fill-rule="nonzero"/><path fill="#efefef" d="M 89.394531 130.925781 C 89.390625 130.929688 89.386719 130.933594 89.382812 130.9375 C 86.011719 134.304688 87.714844 141.300781 92.199219 142.914062 C 94.191406 143.632812 96.421875 142.96875 98.316406 142.019531 C 100.230469 141.054688 102 139.796875 103.535156 138.300781 C 104.867188 137 106.050781 135.464844 106.503906 133.660156 C 106.917969 132.019531 106.648438 130.058594 105.398438 128.835938 C 104.652344 128.109375 103.632812 127.710938 102.605469 127.542969 C 98.320312 126.839844 92.5625 127.769531 89.394531 130.925781 Z M 89.394531 130.925781 " fill-opacity="1" fill-rule="nonzero"/><path fill="#efefef" d="M 78.835938 96.597656 C 79.039062 96.246094 79.261719 95.902344 79.5 95.574219 C 81.621094 92.703125 84.953125 90.132812 88.472656 89.203125 C 91.398438 88.429688 95.269531 88.496094 96.675781 91.605469 C 98.890625 96.496094 94.15625 104.011719 89.851562 106.371094 C 87.371094 107.730469 83.847656 107.625 81.375 106.371094 C 79.78125 105.566406 78.476562 104.179688 77.945312 102.5 C 77.328125 100.554688 77.804688 98.414062 78.835938 96.597656 Z M 78.835938 96.597656 " fill-opacity="1" fill-rule="nonzero"/><path fill="#efefef" d="M 102.441406 121.585938 C 102.804688 121.40625 103.160156 121.199219 103.496094 120.976562 C 106.480469 119.015625 109.222656 115.820312 110.339844 112.355469 C 111.269531 109.46875 111.410156 105.601562 108.382812 104.027344 C 103.621094 101.550781 95.871094 105.875 93.285156 110.050781 C 91.792969 112.457031 91.710938 115.988281 92.828125 118.527344 C 93.546875 120.160156 94.859375 121.539062 96.503906 122.160156 C 98.414062 122.878906 100.574219 122.519531 102.441406 121.585938 Z M 102.441406 121.585938 " fill-opacity="1" fill-rule="nonzero"/><path fill="#efefef" d="M 51.773438 165.722656 C 50.21875 165.734375 48.667969 165.535156 47.15625 165.117188 C 45.890625 164.765625 44.613281 164.550781 43.28125 164.738281 C 41.082031 165.046875 39.050781 166.601562 38.234375 168.671875 C 37.480469 170.582031 37.757812 172.867188 38.953125 174.539062 C 40.824219 177.160156 44.132812 178.179688 45.703125 181.128906 C 47.136719 183.828125 48.222656 187.566406 51.960938 187.53125 C 55.699219 187.5 56.71875 183.746094 58.105469 181.023438 C 59.625 178.042969 62.914062 176.96875 64.742188 174.316406 C 65.90625 172.625 66.144531 170.332031 65.359375 168.4375 C 64.507812 166.382812 62.449219 164.863281 60.246094 164.589844 C 58.910156 164.425781 57.632812 164.664062 56.378906 165.035156 C 54.871094 165.480469 53.324219 165.707031 51.773438 165.722656 Z M 51.773438 165.722656 " fill-opacity="1" fill-rule="nonzero"/><path fill="#efefef" d="M 62.042969 183.480469 C 62.042969 183.476562 62.042969 183.472656 62.042969 183.472656 C 62.28125 180.367188 66.472656 178.242188 69.175781 179.78125 C 70.378906 180.46875 70.996094 181.855469 71.332031 183.199219 C 71.667969 184.558594 71.792969 185.972656 71.703125 187.371094 C 71.625 188.582031 71.367188 189.824219 70.667969 190.816406 C 70.027344 191.71875 68.941406 192.417969 67.804688 192.316406 C 67.128906 192.253906 66.5 191.917969 65.976562 191.480469 C 63.808594 189.648438 61.824219 186.394531 62.042969 183.480469 Z M 62.042969 183.480469 " fill-opacity="1" fill-rule="nonzero"/><path fill="#efefef" d="M 41.839844 183.371094 C 41.839844 183.371094 41.839844 183.367188 41.839844 183.363281 C 41.746094 180.25 37.664062 177.929688 34.890625 179.34375 C 33.65625 179.972656 32.972656 181.328125 32.578125 182.65625 C 32.175781 184 31.984375 185.402344 32.007812 186.804688 C 32.03125 188.019531 32.226562 189.269531 32.882812 190.292969 C 33.476562 191.222656 34.53125 191.972656 35.671875 191.925781 C 36.351562 191.898438 36.996094 191.589844 37.535156 191.175781 C 39.789062 189.449219 41.921875 186.292969 41.839844 183.371094 Z M 41.839844 183.371094 " fill-opacity="1" fill-rule="nonzero"/><path fill="#efefef" d="M 62.875 193.710938 C 62.953125 193.964844 63.015625 194.222656 63.0625 194.484375 C 63.480469 196.78125 63.210938 199.515625 62.078125 201.609375 C 61.132812 203.347656 59.371094 205.15625 57.265625 204.4375 C 53.949219 203.300781 52.496094 197.683594 53.300781 194.582031 C 53.765625 192.789062 55.394531 191.160156 57.097656 190.542969 C 58.191406 190.148438 59.433594 190.148438 60.46875 190.644531 C 61.671875 191.222656 62.472656 192.40625 62.875 193.710938 Z M 62.875 193.710938 " fill-opacity="1" fill-rule="nonzero"/><path fill="#efefef" d="M 40.4375 193.761719 C 40.363281 194.019531 40.300781 194.277344 40.253906 194.539062 C 39.851562 196.835938 40.144531 199.570312 41.289062 201.65625 C 42.246094 203.386719 44.019531 205.1875 46.121094 204.449219 C 49.429688 203.292969 50.84375 197.667969 50.019531 194.566406 C 49.539062 192.78125 47.902344 191.160156 46.195312 190.558594 C 45.097656 190.167969 43.855469 190.175781 42.824219 190.679688 C 41.625 191.269531 40.828125 192.457031 40.4375 193.761719 Z M 40.4375 193.761719 " fill-opacity="1" fill-rule="nonzero"/><path fill="#efefef" d="M 82.089844 63.285156 C 85.410156 64.644531 88.542969 66.46875 91.394531 68.710938 C 93.777344 70.585938 96.3125 72.195312 99.320312 72.988281 C 104.285156 74.296875 110.007812 72.796875 113.601562 69.117188 C 116.917969 65.71875 118.363281 60.59375 117.3125 55.960938 C 115.664062 48.691406 109.511719 43.554688 108.808594 35.859375 C 108.160156 28.816406 109.183594 19.875 101.179688 16.59375 C 93.179688 13.316406 87.644531 20.410156 82.25 24.980469 C 76.355469 29.972656 68.375 29.316406 62.105469 33.34375 C 58.109375 35.910156 55.550781 40.578125 55.535156 45.328125 C 55.515625 50.472656 58.546875 55.558594 63.003906 58.113281 C 65.703125 59.65625 68.640625 60.289062 71.652344 60.621094 C 75.257812 61.023438 78.765625 61.921875 82.089844 63.285156 Z M 82.089844 63.285156 " fill-opacity="1" fill-rule="nonzero"/><g clip-path="url(#11a916f746)"><path fill="#efefef" d="M 76.050781 16.207031 C 76.046875 16.214844 76.042969 16.222656 76.039062 16.226562 C 72.757812 22.636719 61.925781 23.417969 57.53125 17.710938 C 55.578125 15.171875 55.5 11.660156 55.992188 8.492188 C 56.488281 5.289062 57.480469 2.164062 58.921875 -0.738281 C 60.171875 -3.253906 61.832031 -5.671875 64.214844 -7.15625 C 66.382812 -8.507812 69.324219 -9.027344 71.65625 -7.792969 C 73.046875 -7.058594 74.089844 -5.777344 74.808594 -4.375 C 77.796875 1.472656 79.121094 10.183594 76.050781 16.207031 Z M 76.050781 16.207031 " fill-opacity="1" fill-rule="nonzero"/></g><path fill="#efefef" d="M 119.046875 34.527344 C 119.046875 34.535156 119.042969 34.542969 119.039062 34.550781 C 116.457031 41.269531 123.09375 49.875 130.273438 49.347656 C 133.464844 49.113281 136.132812 46.832031 138.167969 44.351562 C 140.21875 41.847656 141.886719 39.023438 143.085938 36.011719 C 144.125 33.402344 144.820312 30.554688 144.339844 27.789062 C 143.902344 25.269531 142.328125 22.726562 139.851562 21.808594 C 138.378906 21.261719 136.726562 21.339844 135.207031 21.738281 C 128.859375 23.402344 121.488281 28.222656 119.046875 34.527344 Z M 119.046875 34.527344 " fill-opacity="1" fill-rule="nonzero"/><g clip-path="url(#f9f9097871)"><path fill="#efefef" d="M 83.421875 -6.355469 C 83.480469 -6.96875 83.578125 -7.578125 83.710938 -8.175781 C 84.871094 -13.445312 87.894531 -19.042969 92.179688 -22.484375 C 95.746094 -25.351562 101.125 -27.636719 104.972656 -24.210938 C 111.03125 -18.820312 109.113281 -5.539062 104.617188 0.359375 C 102.027344 3.761719 97.097656 5.78125 92.917969 5.574219 C 90.226562 5.4375 87.574219 4.328125 85.8125 2.335938 C 83.765625 0.0273438 83.109375 -3.21875 83.421875 -6.355469 Z M 83.421875 -6.355469 " fill-opacity="1" fill-rule="nonzero"/></g><g clip-path="url(#fe3a9dadc6)"><path fill="#efefef" d="M 131.324219 13.621094 C 131.714844 13.144531 132.078125 12.644531 132.410156 12.128906 C 135.320312 7.589844 137.148438 1.496094 136.558594 -3.976562 C 136.070312 -8.527344 133.890625 -13.953125 128.753906 -14.265625 C 120.660156 -14.753906 112.617188 -4.023438 111.609375 3.328125 C 111.03125 7.566406 113.082031 12.488281 116.179688 15.304688 C 118.175781 17.117188 120.832031 18.214844 123.484375 18.058594 C 126.5625 17.878906 129.324219 16.054688 131.324219 13.621094 Z M 131.324219 13.621094 " fill-opacity="1" fill-rule="nonzero"/></g><g clip-path="url(#2ae13dde98)"><path fill="#efefef" d="M 252.273438 -9.226562 C 251.371094 -12.828125 250.96875 -16.554688 251.089844 -20.304688 C 251.195312 -23.441406 250.980469 -26.539062 249.800781 -29.53125 C 247.847656 -34.472656 243.097656 -38.324219 237.835938 -39.066406 C 232.976562 -39.75 227.828125 -37.820312 224.613281 -34.105469 C 219.574219 -28.28125 219.066406 -20.011719 213.09375 -14.710938 C 207.625 -9.859375 199.558594 -5.238281 201.730469 3.4375 C 203.902344 12.117188 213.191406 12.390625 220.296875 14.089844 C 228.058594 15.949219 232.402344 23.003906 239.589844 25.765625 C 244.167969 27.523438 249.621094 26.800781 253.585938 23.90625 C 257.878906 20.769531 260.253906 15.128906 259.648438 9.851562 C 259.285156 6.65625 258.011719 3.824219 256.445312 1.105469 C 254.574219 -2.144531 253.171875 -5.621094 252.273438 -9.226562 Z M 252.273438 -9.226562 " fill-opacity="1" fill-rule="nonzero"/></g><path fill="#efefef" d="M 216.792969 24.628906 C 216.800781 24.625 216.808594 24.625 216.816406 24.625 C 224.15625 23.4375 231.4375 31.988281 229.378906 39.148438 C 228.460938 42.328125 225.585938 44.546875 222.652344 46.074219 C 219.679688 47.621094 216.472656 48.707031 213.175781 49.28125 C 210.316406 49.777344 207.289062 49.875 204.59375 48.800781 C 202.140625 47.820312 199.910156 45.683594 199.507812 42.984375 C 199.269531 41.375 199.699219 39.71875 200.425781 38.265625 C 203.460938 32.191406 209.902344 25.753906 216.792969 24.628906 Z M 216.792969 24.628906 " fill-opacity="1" fill-rule="nonzero"/><path fill="#efefef" d="M 193.503906 32.296875 C 192.957031 32.621094 192.390625 32.914062 191.8125 33.167969 C 186.714844 35.425781 180.207031 36.332031 174.71875 34.867188 C 170.148438 33.648438 164.957031 30.5625 165.449219 25.257812 C 166.226562 16.90625 178.453125 10.378906 186.113281 10.511719 C 190.535156 10.589844 195.230469 13.464844 197.617188 17.078125 C 199.152344 19.402344 199.851562 22.296875 199.273438 24.980469 C 198.601562 28.101562 196.304688 30.632812 193.503906 32.296875 Z M 193.503906 32.296875 " fill-opacity="1" fill-rule="nonzero"/><g clip-path="url(#52837f8381)"><path fill="#efefef" d="M 180.804688 -19.871094 C 180.167969 -19.90625 179.53125 -19.902344 178.898438 -19.863281 C 173.339844 -19.507812 167.148438 -17.300781 162.957031 -13.464844 C 159.464844 -10.269531 156.285156 -5.132812 159.171875 -0.65625 C 163.714844 6.390625 177.574219 6.527344 184.304688 2.867188 C 188.1875 0.753906 191.027344 -3.96875 191.476562 -8.273438 C 191.761719 -11.046875 191.046875 -13.9375 189.296875 -16.050781 C 187.261719 -18.507812 184.054688 -19.691406 180.804688 -19.871094 Z M 180.804688 -19.871094 " fill-opacity="1" fill-rule="nonzero"/></g><path fill="#efefef" d="M 285.617188 200.71875 C 289.730469 201.4375 293.742188 202.722656 297.542969 204.5625 C 300.714844 206.097656 303.996094 207.292969 307.609375 207.441406 C 313.578125 207.691406 319.707031 204.558594 322.871094 199.480469 C 325.792969 194.789062 326.15625 188.609375 323.808594 183.605469 C 320.121094 175.757812 311.855469 171.460938 309.136719 162.890625 C 306.648438 155.050781 305.582031 144.640625 295.675781 142.910156 C 285.765625 141.183594 281.246094 150.625 276.257812 157.160156 C 270.804688 164.304688 261.570312 165.554688 255.453125 171.691406 C 251.554688 175.605469 249.808594 181.546875 250.976562 186.949219 C 252.238281 192.796875 256.949219 197.820312 262.648438 199.605469 C 266.097656 200.6875 269.589844 200.671875 273.097656 200.300781 C 277.292969 199.855469 281.503906 200.003906 285.617188 200.71875 Z M 285.617188 200.71875 " fill-opacity="1" fill-rule="nonzero"/><path fill="#efefef" d="M 267.027344 148.742188 C 267.027344 148.753906 267.023438 148.761719 267.019531 148.769531 C 264.890625 156.867188 252.777344 160.460938 246.363281 155.074219 C 243.511719 152.679688 242.546875 148.707031 242.316406 144.984375 C 242.082031 141.222656 242.433594 137.425781 243.347656 133.765625 C 244.140625 130.597656 245.421875 127.4375 247.757812 125.15625 C 249.886719 123.078125 253.097656 121.753906 256.058594 122.574219 C 257.820312 123.0625 259.324219 124.257812 260.488281 125.671875 C 265.339844 131.566406 269.015625 141.136719 267.027344 148.742188 Z M 267.027344 148.742188 " fill-opacity="1" fill-rule="nonzero"/><path fill="#efefef" d="M 320.441406 158.824219 C 320.4375 158.835938 320.4375 158.84375 320.4375 158.851562 C 319.175781 167.132812 328.859375 175.25 336.886719 172.859375 C 340.453125 171.796875 342.917969 168.535156 344.605469 165.214844 C 346.316406 161.855469 347.503906 158.230469 348.117188 154.511719 C 348.648438 151.285156 348.730469 147.878906 347.492188 144.855469 C 346.367188 142.101562 343.945312 139.605469 340.90625 139.183594 C 339.09375 138.929688 337.238281 139.429688 335.609375 140.261719 C 328.8125 143.738281 321.640625 151.054688 320.441406 158.824219 Z M 320.441406 158.824219 " fill-opacity="1" fill-rule="nonzero"/><path fill="#efefef" d="M 269.78125 121.273438 C 269.695312 120.558594 269.65625 119.84375 269.65625 119.132812 C 269.660156 112.855469 271.699219 105.742188 275.710938 100.761719 C 279.050781 96.613281 284.589844 92.675781 289.816406 95.605469 C 298.042969 100.21875 299.167969 115.785156 295.535156 123.609375 C 293.4375 128.121094 288.339844 131.644531 283.539062 132.453125 C 280.449219 132.972656 277.15625 132.371094 274.660156 130.550781 C 271.761719 128.4375 270.207031 124.914062 269.78125 121.273438 Z M 269.78125 121.273438 " fill-opacity="1" fill-rule="nonzero"/><path fill="#efefef" d="M 329.175781 132.007812 C 329.503906 131.371094 329.792969 130.714844 330.039062 130.046875 C 332.214844 124.160156 332.769531 116.78125 330.742188 110.710938 C 329.054688 105.664062 325.226562 100.042969 319.308594 100.972656 C 309.996094 102.433594 303.527344 116.636719 304.21875 125.234375 C 304.613281 130.195312 308.171875 135.273438 312.390625 137.703125 C 315.109375 139.265625 318.402344 139.847656 321.375 139.007812 C 324.828125 138.035156 327.511719 135.273438 329.175781 132.007812 Z M 329.175781 132.007812 " fill-opacity="1" fill-rule="nonzero"/><g clip-path="url(#b098efa279)"><path fill="#efefef" d="M 372.269531 82.230469 C 369.890625 83.152344 367.386719 83.742188 364.820312 83.976562 C 362.675781 84.171875 360.585938 84.578125 358.648438 85.640625 C 355.449219 87.390625 353.226562 90.957031 353.167969 94.613281 C 353.113281 97.984375 354.867188 101.335938 357.667969 103.210938 C 362.0625 106.15625 367.738281 105.800781 371.855469 109.429688 C 375.621094 112.746094 379.453125 117.859375 385.179688 115.640625 C 390.90625 113.425781 390.300781 107.0625 390.859375 102.070312 C 391.464844 96.617188 395.902344 93.054688 397.175781 87.917969 C 397.984375 84.640625 397.027344 80.984375 394.722656 78.523438 C 392.222656 75.859375 388.179688 74.71875 384.636719 75.578125 C 382.488281 76.097656 380.667969 77.207031 378.949219 78.503906 C 376.894531 80.058594 374.644531 81.308594 372.269531 82.230469 Z M 372.269531 82.230469 " fill-opacity="1" fill-rule="nonzero"/></g><path fill="#efefef" d="M 367.21875 115.117188 C 367.21875 115.109375 367.214844 115.105469 367.210938 115.101562 C 365.269531 110.371094 357.652344 109.175781 354.203125 112.953125 C 352.671875 114.632812 352.40625 117.113281 352.566406 119.382812 C 352.730469 121.679688 353.246094 123.949219 354.09375 126.089844 C 354.832031 127.945312 355.859375 129.753906 357.457031 130.945312 C 358.910156 132.03125 360.964844 132.574219 362.6875 131.839844 C 363.714844 131.402344 364.527344 130.554688 365.121094 129.605469 C 367.582031 125.644531 369.035156 119.558594 367.21875 115.117188 Z M 367.21875 115.117188 " fill-opacity="1" fill-rule="nonzero"/><g clip-path="url(#76ad0f91bd)"><path fill="#efefef" d="M 371.078125 131.898438 C 371.109375 132.335938 371.164062 132.769531 371.246094 133.195312 C 371.957031 136.960938 373.984375 140.996094 376.957031 143.53125 C 379.425781 145.640625 383.195312 147.375 386 145.027344 C 390.414062 141.328125 389.332031 131.863281 386.265625 127.578125 C 384.5 125.109375 381.042969 123.574219 378.070312 123.632812 C 376.15625 123.671875 374.25 124.402344 372.960938 125.777344 C 371.457031 127.375 370.925781 129.664062 371.078125 131.898438 Z M 371.078125 131.898438 " fill-opacity="1" fill-rule="nonzero"/></g><path fill="#efefef" d="M 329.0625 75.984375 C 332.160156 74.949219 335.394531 74.347656 338.691406 74.203125 C 341.441406 74.085938 344.144531 73.691406 346.683594 72.453125 C 350.882812 70.410156 353.9375 65.984375 354.234375 61.316406 C 354.511719 57.007812 352.472656 52.621094 349.007812 50.050781 C 343.566406 46.015625 336.289062 46.125 331.246094 41.238281 C 326.632812 36.765625 322.046875 29.996094 314.589844 32.480469 C 307.136719 34.964844 307.519531 43.136719 306.503906 49.484375 C 305.394531 56.421875 299.507812 60.703125 297.570312 67.195312 C 296.335938 71.332031 297.332031 76.066406 300.132812 79.351562 C 303.167969 82.90625 308.265625 84.617188 312.847656 83.730469 C 315.625 83.195312 318.019531 81.890625 320.296875 80.335938 C 323.019531 78.476562 325.96875 77.015625 329.0625 75.984375 Z M 329.0625 75.984375 " fill-opacity="1" fill-rule="nonzero"/><path fill="#efefef" d="M 297.039062 47.113281 C 297.042969 47.121094 297.042969 47.128906 297.046875 47.136719 C 298.574219 53.496094 291.570312 60.460938 285.164062 59.128906 C 282.316406 58.539062 280.183594 56.164062 278.648438 53.691406 C 277.09375 51.1875 275.929688 48.445312 275.203125 45.589844 C 274.578125 43.113281 274.289062 40.464844 275.054688 38.03125 C 275.746094 35.8125 277.46875 33.710938 279.804688 33.175781 C 281.203125 32.859375 282.679688 33.125 284.003906 33.667969 C 289.523438 35.921875 295.59375 41.144531 297.039062 47.113281 Z M 297.039062 47.113281 " fill-opacity="1" fill-rule="nonzero"/><path fill="#efefef" d="M 337.519531 34.246094 C 337.523438 34.253906 337.523438 34.261719 337.527344 34.269531 C 339.722656 40.433594 349.390625 42.425781 354.027344 37.808594 C 356.089844 35.753906 356.578125 32.597656 356.511719 29.683594 C 356.445312 26.738281 355.921875 23.804688 354.964844 21.019531 C 354.136719 18.601562 352.933594 16.226562 350.960938 14.605469 C 349.167969 13.128906 346.578125 12.3125 344.332031 13.144531 C 342.988281 13.644531 341.898438 14.675781 341.085938 15.851562 C 337.695312 20.761719 335.46875 28.457031 337.519531 34.246094 Z M 337.519531 34.246094 " fill-opacity="1" fill-rule="nonzero"/><path fill="#efefef" d="M 288.765625 27.191406 C 288.445312 26.734375 288.152344 26.257812 287.886719 25.765625 C 285.570312 21.445312 284.339844 15.796875 285.257812 10.882812 C 286.019531 6.792969 288.375 2.027344 293.054688 2.105469 C 300.421875 2.230469 306.957031 12.523438 307.351562 19.253906 C 307.578125 23.132812 305.375 27.449219 302.371094 29.785156 C 300.4375 31.285156 297.949219 32.09375 295.558594 31.765625 C 292.78125 31.386719 290.410156 29.539062 288.765625 27.191406 Z M 288.765625 27.191406 " fill-opacity="1" fill-rule="nonzero"/><g clip-path="url(#14cb75a597)"><path fill="#efefef" d="M 333.605469 12.558594 C 333.59375 12 333.550781 11.4375 333.472656 10.886719 C 332.792969 6.03125 330.445312 0.75 326.800781 -2.671875 C 323.773438 -5.519531 319.058594 -7.96875 315.332031 -5.136719 C 309.464844 -0.679688 310.269531 11.492188 313.925781 17.152344 C 316.035156 20.417969 320.363281 22.59375 324.164062 22.699219 C 326.613281 22.765625 329.09375 21.945312 330.832031 20.265625 C 332.84375 18.316406 333.667969 15.425781 333.605469 12.558594 Z M 333.605469 12.558594 " fill-opacity="1" fill-rule="nonzero"/></g><path fill="#efefef" d="M 203.550781 223.179688 C 206.386719 222.859375 209.265625 222.933594 212.113281 223.414062 C 214.492188 223.8125 216.875 223.96875 219.273438 223.371094 C 223.238281 222.390625 226.660156 219.160156 227.765625 215.21875 C 228.785156 211.582031 227.839844 207.453125 225.34375 204.621094 C 221.421875 200.175781 215.171875 198.941406 211.746094 193.835938 C 208.613281 189.167969 205.917969 182.539062 199.085938 183.304688 C 192.25 184.070312 191.089844 191.132812 189.066406 196.382812 C 186.855469 202.117188 181.035156 204.707031 178.195312 209.910156 C 176.382812 213.226562 176.375 217.460938 178.175781 220.78125 C 180.125 224.378906 184.175781 226.773438 188.257812 226.851562 C 190.730469 226.902344 193.023438 226.222656 195.25 225.304688 C 197.921875 224.207031 200.710938 223.496094 203.550781 223.179688 Z M 203.550781 223.179688 " fill-opacity="1" fill-rule="nonzero"/><path fill="#efefef" d="M 181.398438 192.625 C 181.398438 192.632812 181.398438 192.640625 181.398438 192.644531 C 181.550781 198.371094 174.289062 203.050781 169.046875 200.746094 C 166.714844 199.71875 165.324219 197.296875 164.457031 194.898438 C 163.585938 192.472656 163.085938 189.914062 162.988281 187.335938 C 162.902344 185.105469 163.136719 182.785156 164.234375 180.839844 C 165.230469 179.066406 167.089844 177.582031 169.1875 177.554688 C 170.4375 177.535156 171.652344 178.03125 172.6875 178.738281 C 177.003906 181.675781 181.246094 187.25 181.398438 192.625 Z M 181.398438 192.625 " fill-opacity="1" fill-rule="nonzero"/><path fill="#efefef" d="M 218.386719 189 C 218.390625 189.007812 218.390625 189.011719 218.390625 189.019531 C 219.148438 194.695312 227.058594 198.167969 231.867188 195.058594 C 234.007812 193.675781 235 191.0625 235.472656 188.558594 C 235.953125 186.027344 236.039062 183.417969 235.730469 180.859375 C 235.460938 178.640625 234.863281 176.390625 233.472656 174.640625 C 232.203125 173.050781 230.136719 171.878906 228.0625 172.179688 C 226.824219 172.363281 225.699219 173.046875 224.789062 173.90625 C 220.996094 177.492188 217.6875 183.667969 218.386719 189 Z M 218.386719 189 " fill-opacity="1" fill-rule="nonzero"/><path fill="#efefef" d="M 177.945312 174.066406 C 177.753906 173.617188 177.589844 173.152344 177.453125 172.683594 C 176.253906 168.566406 176.234375 163.503906 177.914062 159.464844 C 179.308594 156.101562 182.191406 152.457031 186.183594 153.378906 C 192.464844 154.828125 196.183594 164.828125 195.296875 170.660156 C 194.785156 174.023438 192.113281 177.316406 189.117188 178.765625 C 187.1875 179.699219 184.914062 179.9375 182.925781 179.21875 C 180.617188 178.390625 178.921875 176.375 177.945312 174.066406 Z M 177.945312 174.066406 " fill-opacity="1" fill-rule="nonzero"/><path fill="#efefef" d="M 218.988281 169.722656 C 219.082031 169.242188 219.144531 168.753906 219.179688 168.269531 C 219.480469 163.988281 218.433594 159.039062 215.9375 155.441406 C 213.863281 152.453125 210.273438 149.5 206.570312 151.242188 C 200.734375 153.988281 199.210938 164.550781 201.308594 170.0625 C 202.519531 173.242188 205.824219 175.894531 209.0625 176.679688 C 211.144531 177.183594 213.417969 176.933594 215.207031 175.8125 C 217.289062 174.511719 218.519531 172.1875 218.988281 169.722656 Z M 218.988281 169.722656 " fill-opacity="1" fill-rule="nonzero"/><path fill="#efefef" d="M 240.519531 317.761719 C 244.277344 319.558594 247.777344 321.875 250.929688 324.660156 C 253.5625 326.988281 256.390625 329.019531 259.816406 330.136719 C 265.476562 331.980469 272.199219 330.625 276.601562 326.605469 C 280.664062 322.890625 282.675781 317.058594 281.765625 311.625 C 280.339844 303.105469 273.5625 296.753906 273.257812 287.800781 C 272.976562 279.605469 274.75 269.328125 265.707031 265.003906 C 256.667969 260.679688 249.792969 268.519531 243.246094 273.445312 C 236.09375 278.832031 226.902344 277.546875 219.378906 281.789062 C 214.585938 284.492188 211.316406 289.722656 210.984375 295.222656 C 210.621094 301.175781 213.792969 307.261719 218.78125 310.507812 C 221.800781 312.476562 225.15625 313.402344 228.621094 313.988281 C 232.765625 314.691406 236.765625 315.964844 240.519531 317.761719 Z M 240.519531 317.761719 " fill-opacity="1" fill-rule="nonzero"/><path fill="#efefef" d="M 236.65625 262.886719 C 236.648438 262.894531 236.644531 262.902344 236.640625 262.910156 C 232.417969 270.105469 219.832031 270.292969 215.125 263.394531 C 213.03125 260.328125 213.175781 256.257812 213.953125 252.625 C 214.742188 248.953125 216.097656 245.402344 217.957031 242.136719 C 219.570312 239.308594 221.648438 236.625 224.503906 235.0625 C 227.105469 233.640625 230.542969 233.238281 233.160156 234.820312 C 234.722656 235.765625 235.84375 237.316406 236.578125 238.988281 C 239.652344 245.949219 240.605469 256.121094 236.65625 262.886719 Z M 236.65625 262.886719 " fill-opacity="1" fill-rule="nonzero"/><path fill="#efefef" d="M 285.195312 286.941406 C 285.191406 286.949219 285.1875 286.957031 285.183594 286.964844 C 281.75 294.570312 288.859375 304.96875 297.203125 304.835938 C 300.914062 304.777344 304.152344 302.3125 306.667969 299.578125 C 309.210938 296.816406 311.324219 293.65625 312.914062 290.253906 C 314.289062 287.304688 315.28125 284.054688 314.910156 280.820312 C 314.570312 277.875 312.914062 274.828125 310.113281 273.601562 C 308.441406 272.871094 306.527344 272.851562 304.738281 273.214844 C 297.285156 274.71875 288.433594 279.808594 285.195312 286.941406 Z M 285.195312 286.941406 " fill-opacity="1" fill-rule="nonzero"/><path fill="#efefef" d="M 246.679688 237.265625 C 246.789062 236.558594 246.941406 235.859375 247.132812 235.179688 C 248.824219 229.15625 252.695312 222.882812 257.882812 219.179688 C 262.199219 216.101562 268.578125 213.816406 272.800781 218.035156 C 279.453125 224.675781 276.351562 239.914062 270.761719 246.445312 C 267.539062 250.210938 261.699219 252.21875 256.875 251.699219 C 253.769531 251.363281 250.773438 249.902344 248.871094 247.484375 C 246.65625 244.671875 246.109375 240.875 246.679688 237.265625 Z M 246.679688 237.265625 " fill-opacity="1" fill-rule="nonzero"/><path fill="#efefef" d="M 300.785156 263.5625 C 301.269531 263.039062 301.722656 262.484375 302.140625 261.910156 C 305.808594 256.847656 308.328125 249.917969 308.011719 243.550781 C 307.75 238.25 305.585938 231.828125 299.660156 231.125 C 290.328125 230.019531 280.308594 241.90625 278.65625 250.34375 C 277.703125 255.210938 279.75 261.039062 283.148438 264.503906 C 285.339844 266.734375 288.34375 268.183594 291.417969 268.179688 C 294.996094 268.175781 298.308594 266.246094 300.785156 263.5625 Z M 300.785156 263.5625 " fill-opacity="1" fill-rule="nonzero"/><g clip-path="url(#fc16461f08)"><path fill="#efefef" d="M -30.632812 293.015625 C -28.710938 297.445312 -27.40625 302.136719 -26.765625 306.972656 C -26.230469 311.011719 -25.300781 314.941406 -23.148438 318.523438 C -19.597656 324.445312 -12.6875 328.375 -5.785156 328.203125 C 0.589844 328.046875 6.78125 324.472656 10.113281 319.03125 C 15.335938 310.488281 14.230469 299.777344 20.761719 291.710938 C 26.738281 284.328125 36.097656 276.6875 31.472656 266.023438 C 26.847656 255.359375 14.878906 256.988281 5.410156 256.320312 C -4.9375 255.589844 -12.003906 247.46875 -21.804688 245.457031 C -28.054688 244.175781 -34.890625 246.265625 -39.355469 250.820312 C -44.191406 255.753906 -46.042969 263.492188 -44.144531 270.128906 C -42.996094 274.148438 -40.765625 277.511719 -38.179688 280.660156 C -35.085938 284.433594 -32.554688 288.589844 -30.632812 293.015625 Z M -30.632812 293.015625 " fill-opacity="1" fill-rule="nonzero"/></g><g clip-path="url(#22590d2aa6)"><path fill="#efefef" d="M 7.664062 242.0625 C 7.652344 242.066406 7.644531 242.070312 7.632812 242.074219 C -1.527344 245.15625 -12.679688 235.742188 -11.558594 226.128906 C -11.0625 221.855469 -7.84375 218.402344 -4.40625 215.816406 C -0.925781 213.199219 2.957031 211.125 7.0625 209.6875 C 10.621094 208.441406 14.480469 207.671875 18.164062 208.480469 C 21.515625 209.214844 24.832031 211.476562 25.921875 214.851562 C 26.570312 216.867188 26.371094 219.078125 25.746094 221.097656 C 23.148438 229.53125 16.257812 239.152344 7.664062 242.0625 Z M 7.664062 242.0625 " fill-opacity="1" fill-rule="nonzero"/></g><path fill="#efefef" d="M 31.859375 300.042969 C 31.851562 300.046875 31.839844 300.054688 31.832031 300.058594 C 23.050781 304.097656 21.375 318.601562 28.773438 324.835938 C 32.066406 327.605469 36.769531 327.914062 41.046875 327.4375 C 45.371094 326.957031 49.617188 325.800781 53.59375 324.03125 C 57.039062 322.496094 60.375 320.410156 62.503906 317.296875 C 64.441406 314.460938 65.308594 310.539062 63.789062 307.335938 C 62.882812 305.421875 61.222656 303.949219 59.386719 302.90625 C 51.71875 298.550781 40.113281 296.269531 31.859375 300.042969 Z M 31.859375 300.042969 " fill-opacity="1" fill-rule="nonzero"/><path fill="#efefef" d="M 35.890625 227.277344 C 36.523438 226.746094 37.1875 226.25 37.875 225.796875 C 43.925781 221.816406 52.078125 219.273438 59.429688 219.980469 C 65.542969 220.574219 72.859375 223.425781 73.351562 230.332031 C 74.128906 241.203125 59.839844 252.171875 49.992188 253.632812 C 44.308594 254.472656 37.675781 251.789062 33.851562 247.664062 C 31.386719 245.007812 29.878906 241.449219 30.046875 237.882812 C 30.242188 233.742188 32.652344 230.003906 35.890625 227.277344 Z M 35.890625 227.277344 " fill-opacity="1" fill-rule="nonzero"/><path fill="#efefef" d="M 63.253906 291.453125 C 64.078125 291.363281 64.894531 291.222656 65.695312 291.039062 C 72.75 289.402344 80.214844 285.253906 84.777344 279.441406 C 88.570312 274.605469 91.558594 267.339844 86.90625 262.214844 C 79.582031 254.148438 61.789062 256.925781 53.9375 263.050781 C 49.40625 266.582031 46.769531 273.242188 47.109375 278.859375 C 47.328125 282.476562 48.859375 286.027344 51.554688 288.363281 C 54.6875 291.082031 59.046875 291.917969 63.253906 291.453125 Z M 63.253906 291.453125 " fill-opacity="1" fill-rule="nonzero"/></g></g></g></svg>