<svg width="791" height="667" viewBox="0 0 791 667" fill="none" xmlns="http://www.w3.org/2000/svg">
<path d="M214.903 210.414C183.04 24.2142 -19.6419 -5.24104 -117 3.30624V705.499L416.257 829.763C625.724 870.527 970.313 909.055 672.928 737.058C301.197 522.061 254.731 443.163 214.903 210.414Z" fill="#FF914D"/>
<path d="M-117 3.30624L-117.131 1.81199L-118.5 1.93216V3.30624H-117ZM214.903 210.414L213.424 210.667L213.424 210.667L214.903 210.414ZM672.928 737.058L673.679 735.759L673.679 735.759L672.928 737.058ZM416.257 829.763L415.917 831.224L415.943 831.23L415.97 831.235L416.257 829.763ZM-117 705.499H-118.5V706.689L-117.34 706.959L-117 705.499ZM-116.869 4.80049C-68.3753 0.543143 6.36832 5.75795 72.9051 35.2016C139.384 64.6195 197.597 118.175 213.424 210.667L216.381 210.161C200.346 116.453 141.287 62.1809 74.1191 32.4582C7.00982 2.76122 -68.2665 -2.47795 -117.131 1.81199L-116.869 4.80049ZM213.424 210.667C233.349 327.103 254.975 405.344 318.3 481.353C381.551 557.274 486.321 630.863 672.177 738.356L673.679 735.759C487.805 628.256 383.476 554.897 320.604 479.433C257.806 404.056 236.285 326.473 216.381 210.161L213.424 210.667ZM672.177 738.356C709.317 759.836 736.38 778 754.92 793.254C773.52 808.557 783.327 820.764 786.308 830.285C787.778 834.983 787.566 838.957 786.001 842.357C784.423 845.786 781.386 848.813 776.881 851.426C767.826 856.678 753.272 860.013 734.528 861.702C659.611 868.452 521.296 848.676 416.543 828.291L415.97 831.235C520.685 851.614 659.398 871.484 734.797 864.69C753.631 862.993 768.737 859.618 778.386 854.021C783.232 851.21 786.809 847.778 788.726 843.612C790.656 839.417 790.821 834.66 789.17 829.389C785.909 818.971 775.484 806.288 756.826 790.937C738.107 775.535 710.886 757.278 673.679 735.759L672.177 738.356ZM416.597 828.302L-116.66 704.038L-117.34 706.959L415.917 831.224L416.597 828.302ZM-115.5 705.499V3.30624H-118.5V705.499H-115.5Z" fill="black"/>
</svg>
