<svg width="755" height="648" viewBox="0 0 755 648" fill="none" xmlns="http://www.w3.org/2000/svg">
<path d="M240.433 206.173C211.975 23.7622 30.9537 -5.09372 -56 3.27966V691.186L420.269 812.922C607.351 852.857 915.115 890.601 649.511 722.103C317.506 511.48 276.005 434.187 240.433 206.173Z" fill="#FF914D"/>
<path d="M-56 3.27966L-56.1438 1.78657L-57.5 1.91717V3.27966H-56ZM240.433 206.173L241.915 205.942L240.433 206.173ZM649.511 722.103L650.314 720.836L649.511 722.103ZM420.269 812.922L419.898 814.375L419.927 814.383L419.956 814.389L420.269 812.922ZM-56 691.186H-57.5V692.35L-56.3715 692.639L-56 691.186ZM-55.8562 4.77276C-12.5854 0.605905 54.119 5.71025 113.498 34.5317C172.805 63.3188 224.809 115.755 238.951 206.404L241.915 205.942C227.6 114.181 174.864 60.9832 114.808 31.8329C54.8225 2.71698 -12.4609 -2.41996 -56.1438 1.78657L-55.8562 4.77276ZM238.951 206.404C256.745 320.46 276.056 397.102 332.615 471.567C389.118 545.957 482.708 618.06 648.707 723.369L650.314 720.836C484.309 615.523 391.146 543.668 335.004 469.752C278.919 395.911 259.693 319.9 241.915 205.942L238.951 206.404ZM648.707 723.369C681.873 744.41 706.036 762.198 722.586 777.134C739.185 792.114 747.944 804.067 750.609 813.406C751.928 818.026 751.738 821.945 750.333 825.294C748.922 828.658 746.217 831.608 742.221 834.15C734.177 839.267 721.227 842.529 704.5 844.182C671.114 847.482 623.544 844.305 572.554 837.786C521.593 831.271 467.322 821.432 420.582 811.455L419.956 814.389C466.757 824.379 521.112 834.234 572.174 840.762C623.206 847.286 671.055 850.502 704.795 847.167C721.63 845.504 735.17 842.191 743.831 836.681C748.188 833.909 751.389 830.531 753.1 826.455C754.816 822.364 754.963 817.729 753.494 812.583C750.585 802.389 741.274 789.958 724.596 774.907C707.87 759.812 683.55 741.921 650.314 720.836L648.707 723.369ZM420.641 811.469L-55.6285 689.732L-56.3715 692.639L419.898 814.375L420.641 811.469ZM-54.5 691.186V3.27966H-57.5V691.186H-54.5Z" fill="black"/>
</svg>
