<svg xmlns="http://www.w3.org/2000/svg" xmlns:xlink="http://www.w3.org/1999/xlink" width="500" zoomAndPan="magnify" viewBox="0 0 375 374.999991" height="500" preserveAspectRatio="xMidYMid meet" version="1.0"><defs><g/><clipPath id="5b5d2795ea"><path d="M 124.238281 48.207031 L 124.597656 48.207031 L 124.597656 48.488281 L 124.238281 48.488281 Z M 124.238281 48.207031 " clip-rule="nonzero"/></clipPath><clipPath id="514feaa5ad"><path d="M 124.574219 48.375 C 123.898438 48.675781 124.5 48.226562 124.5 48.226562 " clip-rule="nonzero"/></clipPath><clipPath id="5b3c52e0fe"><path d="M 37.195312 216.871094 L 66.445312 216.871094 L 66.445312 253.621094 L 37.195312 253.621094 Z M 37.195312 216.871094 " clip-rule="nonzero"/></clipPath><clipPath id="64440649ef"><path d="M 320 220.257812 L 349 220.257812 L 349 250 L 320 250 Z M 320 220.257812 " clip-rule="nonzero"/></clipPath><clipPath id="751e687b13"><path d="M 84.070312 264 L 90 264 L 90 270 L 84.070312 270 Z M 84.070312 264 " clip-rule="nonzero"/></clipPath><clipPath id="5a114a39a9"><path d="M 96.71875 264.753906 L 101.320312 264.753906 L 101.320312 269.539062 L 96.71875 269.539062 Z M 96.71875 264.753906 " clip-rule="nonzero"/></clipPath><clipPath id="9de7695e10"><path d="M 88.847656 267.207031 L 96.976562 267.207031 L 96.976562 274.007812 L 88.847656 274.007812 Z M 88.847656 267.207031 " clip-rule="nonzero"/></clipPath><clipPath id="efb290649b"><path d="M 283 259.222656 L 289 259.222656 L 289 266 L 283 266 Z M 283 259.222656 " clip-rule="nonzero"/></clipPath><clipPath id="c87b6b9e56"><path d="M 273.242188 263 L 279 263 L 279 269 L 273.242188 269 Z M 273.242188 263 " clip-rule="nonzero"/></clipPath><clipPath id="1efe9c15d3"><path d="M 287.292969 263.730469 L 292.519531 263.730469 L 292.519531 269.042969 L 287.292969 269.042969 Z M 287.292969 263.730469 " clip-rule="nonzero"/></clipPath><clipPath id="a1fefaf71c"><path d="M 278.550781 266.457031 L 287.578125 266.457031 L 287.578125 274.011719 L 278.550781 274.011719 Z M 278.550781 266.457031 " clip-rule="nonzero"/></clipPath><clipPath id="0597475479"><path d="M 103.351562 103.789062 L 139.351562 103.789062 L 139.351562 118.789062 L 103.351562 118.789062 Z M 103.351562 103.789062 " clip-rule="nonzero"/></clipPath><clipPath id="b437704b37"><path d="M 24.808594 214.851562 L 25.257812 214.851562 L 25.257812 215.578125 L 24.808594 215.578125 Z M 24.808594 214.851562 " clip-rule="nonzero"/></clipPath><clipPath id="78e91eac89"><path d="M 24.816406 214.863281 C 25.78125 215.390625 24.816406 215.566406 24.816406 215.566406 " clip-rule="nonzero"/></clipPath><clipPath id="76a0a6f317"><path d="M 307.15625 103.789062 L 362.277344 103.789062 L 362.277344 186.289062 L 307.15625 186.289062 Z M 307.15625 103.789062 " clip-rule="nonzero"/></clipPath></defs><rect x="-37.5" width="450" fill="#ffffff" y="-37.499999" height="449.999989" fill-opacity="1"/><rect x="-37.5" width="450" fill="#3498db" y="-37.499999" height="449.999989" fill-opacity="1"/><g clip-path="url(#5b5d2795ea)"><g clip-path="url(#514feaa5ad)"><path fill="#efefef" d="M 120.898438 45.226562 L 127.65625 45.226562 L 127.65625 51.75 L 120.898438 51.75 Z M 120.898438 45.226562 " fill-opacity="1" fill-rule="nonzero"/></g></g><g fill="#ffffff" fill-opacity="1"><g transform="translate(25.629608, 243.678455)"><g><path d="M 17.5625 -87.296875 L 0.71875 -87.296875 L 7.890625 -119.5625 L 44.8125 -119.5625 L 45.890625 -123.6875 L 73.84375 -123.6875 L 65.78125 -87.296875 L 49.828125 -87.296875 L 49.828125 0 L 17.5625 0 Z M 17.5625 -87.296875 "/></g></g></g><g fill="#ffffff" fill-opacity="1"><g transform="translate(96.609793, 243.678455)"><g><path d="M 8.421875 -87.296875 L 1.25 -87.296875 L 8.421875 -119.5625 L 40.6875 -119.5625 L 40.6875 0 L 8.421875 0 Z M 8.421875 -87.296875 "/></g></g></g><g fill="#ffffff" fill-opacity="1"><g transform="translate(145.722355, 243.678455)"><g><path d="M 8.0625 -87.296875 L 0.890625 -87.296875 L 8.0625 -119.5625 L 40.328125 -119.5625 L 62.5625 -74.203125 L 62.5625 -119.5625 L 94.828125 -119.5625 L 94.828125 0 L 66.5 0 L 40.328125 -51.265625 L 40.328125 0 L 8.0625 0 Z M 8.0625 -87.296875 "/></g></g></g><g fill="#ffffff" fill-opacity="1"><g transform="translate(248.787023, 243.678455)"><g><path d="M 20.96875 -87.296875 L 13.796875 -87.296875 L 20.96875 -119.5625 L 72.59375 -119.5625 L 100.921875 0 L 65.25 0 L 61.125 -20.609375 L 38.53125 -20.609375 L 34.234375 0 L -0.359375 0 Z M 57.71875 -47.328125 L 50.1875 -80.65625 L 42.484375 -47.328125 Z M 57.71875 -47.328125 "/></g></g></g><g clip-path="url(#5b3c52e0fe)"><path fill="#3498db" d="M 45.945312 248.5625 C 46.402344 248.710938 46.867188 248.859375 47.355469 248.835938 C 48.28125 248.792969 49.035156 249.191406 49.742188 249.726562 C 49.90625 249.855469 49.910156 249.882812 49.898438 250 L 50.375 250.546875 L 50.164062 250.558594 L 50.140625 250.757812 C 49.929688 250.601562 49.808594 250.746094 49.667969 250.859375 C 49.425781 251.058594 49.15625 251.175781 48.832031 251.109375 C 48.785156 251.101562 48.730469 251.136719 48.683594 251.144531 C 48.632812 251.148438 48.554688 251.164062 48.535156 251.136719 C 48.429688 251.007812 48.351562 251.082031 48.261719 251.152344 C 48.117188 251.273438 47.964844 251.28125 47.808594 251.171875 C 47.734375 251.125 47.644531 251.101562 47.566406 251.058594 C 47.488281 251.019531 47.410156 250.972656 47.339844 250.921875 C 47.203125 250.828125 47.078125 250.714844 46.929688 250.644531 C 46.679688 250.519531 46.421875 250.417969 46.15625 250.335938 C 45.839844 250.242188 45.511719 250.195312 45.1875 250.113281 C 44.722656 249.996094 44.253906 249.875 43.792969 249.730469 C 43.5 249.636719 43.21875 249.523438 42.945312 249.382812 C 42.78125 249.300781 42.644531 249.1875 42.527344 249.046875 C 42.347656 248.824219 42.371094 248.585938 42.5625 248.375 C 42.820312 248.101562 43.078125 247.832031 43.34375 247.5625 C 43.472656 247.457031 43.503906 247.328125 43.445312 247.171875 C 43.382812 246.996094 43.347656 246.8125 43.300781 246.628906 C 43.214844 246.300781 42.957031 246.210938 42.667969 246.414062 C 42.652344 246.425781 42.640625 246.4375 42.628906 246.449219 C 42.269531 246.863281 41.8125 246.90625 41.316406 246.800781 C 40.253906 246.574219 39.207031 246.273438 38.183594 245.902344 C 37.894531 245.800781 37.617188 245.667969 37.328125 245.554688 C 37.230469 245.515625 37.195312 245.464844 37.230469 245.363281 C 37.359375 244.972656 37.546875 244.621094 37.875 244.355469 C 38.074219 244.195312 38.296875 244.125 38.550781 244.144531 C 39.308594 244.1875 40.054688 244.28125 40.753906 244.605469 C 40.964844 244.710938 41.167969 244.695312 41.359375 244.566406 C 41.710938 244.339844 42.058594 244.109375 42.394531 243.867188 C 42.460938 243.808594 42.488281 243.734375 42.484375 243.648438 C 42.351562 242.628906 42.457031 241.632812 42.796875 240.664062 C 42.972656 240.179688 43.277344 239.726562 43.597656 239.316406 C 44.300781 238.414062 44.925781 237.464844 45.566406 236.519531 C 46.15625 235.644531 46.820312 234.820312 47.445312 233.964844 C 48.113281 233.054688 48.773438 232.136719 49.429688 231.21875 C 49.878906 230.574219 50.386719 229.976562 50.957031 229.429688 C 51.242188 229.160156 51.59375 228.957031 51.910156 228.722656 C 52.070312 228.617188 52.222656 228.5 52.371094 228.375 C 52.8125 227.957031 53.308594 227.582031 53.511719 226.96875 C 53.574219 226.785156 53.636719 226.601562 53.714844 226.417969 C 53.808594 226.195312 53.976562 226.046875 54.234375 226.054688 C 54.355469 226.066406 54.433594 226.011719 54.46875 225.894531 C 54.546875 225.699219 54.640625 225.507812 54.730469 225.316406 C 54.792969 225.183594 54.789062 225.042969 54.730469 224.863281 C 54.71875 224.832031 54.761719 224.78125 54.78125 224.738281 C 54.617188 224.621094 54.601562 224.464844 54.757812 224.273438 L 54.566406 224.125 L 54.757812 223.949219 L 54.609375 223.933594 L 54.738281 223.738281 L 54.578125 223.714844 C 54.578125 223.707031 54.570312 223.6875 54.574219 223.683594 C 54.703125 223.53125 54.582031 223.351562 54.621094 223.191406 C 54.625 223.152344 54.628906 223.113281 54.628906 223.078125 L 54.570312 223.039062 L 54.742188 222.703125 L 54.632812 222.652344 C 54.769531 222.488281 54.925781 222.351562 54.929688 222.085938 C 54.957031 222.066406 54.980469 222.042969 55.003906 222.023438 C 55.101562 221.925781 55.277344 221.828125 55.273438 221.730469 C 55.257812 221.515625 55.203125 221.308594 55.113281 221.113281 C 55.0625 220.992188 54.949219 220.894531 54.839844 220.761719 C 54.605469 221.515625 54.367188 222.214844 53.917969 222.8125 L 53.863281 222.796875 C 53.835938 222.5 53.8125 222.210938 53.777344 221.921875 C 53.773438 221.808594 53.746094 221.699219 53.699219 221.59375 C 53.515625 221.277344 53.300781 220.976562 53.125 220.65625 C 52.960938 220.367188 52.789062 220.078125 52.695312 219.765625 C 52.539062 219.257812 52.757812 218.84375 53.222656 218.582031 C 53.597656 218.367188 54.015625 218.265625 54.417969 218.128906 C 54.894531 217.972656 55.351562 217.773438 55.824219 217.613281 C 56.019531 217.546875 56.234375 217.535156 56.441406 217.5 C 56.484375 217.492188 56.53125 217.515625 56.566406 217.5 C 56.703125 217.445312 56.785156 217.492188 56.871094 217.601562 C 57.019531 217.785156 57.234375 217.808594 57.4375 217.75 C 58 217.601562 58.574219 217.601562 59.144531 217.574219 C 59.324219 217.566406 59.507812 217.601562 59.6875 217.605469 C 60.195312 217.613281 60.699219 217.605469 61.207031 217.625 C 61.457031 217.632812 61.558594 217.476562 61.648438 217.292969 C 61.699219 217.191406 61.746094 217.117188 61.878906 217.1875 C 61.910156 217.203125 61.976562 217.164062 62.019531 217.136719 C 62.191406 217.03125 62.378906 216.996094 62.574219 217.039062 C 62.683594 217.0625 62.792969 217.058594 62.898438 217.019531 C 63.21875 216.863281 63.53125 216.875 63.839844 217.058594 C 64.246094 217.285156 64.699219 217.332031 65.132812 217.453125 C 65.503906 217.550781 65.867188 217.652344 66.226562 217.769531 C 66.554688 217.878906 66.59375 217.992188 66.523438 218.328125 C 66.371094 219.046875 66.167969 219.761719 66.195312 220.507812 C 66.191406 220.550781 66.183594 220.59375 66.167969 220.632812 C 66.082031 220.597656 66 220.550781 65.917969 220.496094 C 65.742188 220.351562 65.570312 220.203125 65.40625 220.039062 C 65.328125 219.964844 65.269531 219.941406 65.171875 220.007812 C 64.816406 220.25 64.445312 220.480469 64.089844 220.726562 C 63.921875 220.84375 63.863281 221.023438 63.855469 221.230469 C 63.835938 221.742188 63.78125 222.253906 63.757812 222.769531 C 63.734375 223.296875 63.46875 223.71875 63.1875 224.136719 C 63.050781 224.339844 62.875 224.519531 62.734375 224.71875 C 62.679688 224.792969 62.613281 224.917969 62.636719 224.988281 C 62.804688 225.441406 62.738281 225.894531 62.679688 226.351562 C 62.605469 226.917969 62.53125 227.488281 62.453125 228.058594 C 62.414062 228.359375 62.464844 228.644531 62.601562 228.917969 C 62.972656 229.671875 63.214844 230.464844 63.324219 231.296875 C 63.414062 231.960938 63.605469 232.609375 63.730469 233.265625 C 63.835938 233.796875 63.878906 234.332031 63.789062 234.871094 C 63.738281 235.15625 63.628906 235.414062 63.453125 235.644531 C 63.015625 236.242188 62.667969 236.894531 62.5 237.621094 C 62.429688 237.929688 62.421875 238.253906 62.398438 238.574219 C 62.34375 239.238281 62.207031 239.890625 61.992188 240.519531 C 61.773438 241.175781 61.664062 241.84375 61.664062 242.535156 C 61.640625 243.546875 61.621094 244.566406 61.617188 245.582031 C 61.617188 246.160156 61.792969 246.710938 61.96875 247.257812 C 61.976562 247.289062 61.992188 247.316406 62.011719 247.335938 C 62.199219 247.46875 62.25 247.6875 62.367188 247.863281 C 62.542969 248.101562 62.757812 248.300781 63.011719 248.453125 C 63.339844 248.664062 63.707031 248.8125 64.046875 249 C 64.273438 249.113281 64.410156 249.296875 64.453125 249.546875 C 64.46875 249.644531 64.539062 249.730469 64.585938 249.824219 C 64.617188 249.886719 64.644531 249.953125 64.675781 250.019531 L 64.628906 250.066406 L 64.367188 249.90625 C 64.105469 250.007812 63.867188 250.105469 63.625 250.191406 C 63.503906 250.230469 63.382812 250.257812 63.257812 250.265625 C 63.164062 250.269531 63.070312 250.230469 62.976562 250.226562 C 62.851562 250.214844 62.722656 250.214844 62.597656 250.230469 C 62.230469 250.28125 61.886719 250.21875 61.566406 250.039062 C 61.390625 249.941406 61.230469 249.828125 61.078125 249.695312 C 60.976562 249.609375 60.902344 249.5 60.855469 249.375 C 60.734375 249 60.625 248.617188 60.527344 248.230469 C 60.441406 247.894531 60.386719 247.546875 60.304688 247.207031 C 60.234375 246.894531 60.167969 246.582031 60.070312 246.277344 C 60.023438 246.152344 59.941406 246.058594 59.828125 245.988281 C 59.648438 245.875 59.574219 245.804688 59.664062 245.617188 C 59.945312 245.042969 59.832031 244.457031 59.761719 243.867188 C 59.648438 242.941406 59.5625 242.015625 59.464844 241.089844 C 59.4375 240.820312 59.40625 240.550781 59.375 240.285156 L 59.300781 240.222656 C 59.289062 240.277344 59.265625 240.328125 59.238281 240.371094 C 58.433594 241.257812 57.449219 241.824219 56.253906 241.957031 C 55.964844 241.992188 55.804688 242.050781 55.753906 242.363281 C 55.722656 242.558594 55.570312 242.726562 55.488281 242.917969 C 55.429688 243.0625 55.359375 243.222656 55.363281 243.375 C 55.390625 244.09375 55.441406 244.8125 55.488281 245.527344 C 55.503906 245.726562 55.472656 245.964844 55.570312 246.109375 C 55.671875 246.253906 55.910156 246.300781 56.085938 246.398438 C 56.234375 246.476562 56.378906 246.566406 56.515625 246.667969 C 56.617188 246.742188 56.734375 246.816406 56.691406 246.992188 C 56.679688 247.039062 56.761719 247.105469 56.800781 247.167969 C 56.875 247.28125 56.9375 247.394531 57.019531 247.527344 C 56.898438 247.527344 56.800781 247.554688 56.742188 247.523438 C 56.5625 247.425781 56.476562 247.558594 56.34375 247.625 C 56.15625 247.710938 55.957031 247.78125 55.753906 247.835938 C 55.671875 247.851562 55.589844 247.863281 55.503906 247.867188 C 55.527344 248.433594 55.554688 248.980469 55.722656 249.519531 C 56.03125 250.457031 56.621094 251.179688 57.375 251.78125 C 57.5 251.886719 57.617188 252 57.726562 252.121094 C 57.835938 252.238281 57.949219 252.359375 57.914062 252.550781 C 57.902344 252.609375 57.953125 252.675781 57.972656 252.738281 C 58.007812 252.839844 58.039062 252.9375 58.058594 253.003906 L 57.65625 253.191406 C 57.636719 253.207031 57.613281 253.214844 57.59375 253.21875 C 57.460938 253.21875 57.332031 253.207031 57.203125 253.207031 C 57.171875 253.203125 57.144531 253.210938 57.121094 253.230469 C 56.964844 253.457031 56.742188 253.390625 56.527344 253.378906 C 56.363281 253.367188 56.199219 253.230469 56.035156 253.386719 C 56.019531 253.398438 55.9375 253.375 55.921875 253.351562 C 55.804688 253.160156 55.605469 253.207031 55.4375 253.171875 C 55.3125 253.144531 55.183594 253.140625 55.0625 253.109375 C 54.660156 253.011719 54.429688 252.746094 54.265625 252.371094 C 54.023438 251.808594 54 251.207031 53.925781 250.617188 C 53.855469 249.992188 53.675781 249.410156 53.304688 248.898438 C 53.113281 248.636719 53.09375 248.355469 53.136719 248.054688 C 53.15625 247.898438 53.175781 247.742188 53.199219 247.589844 C 53.222656 247.457031 53.167969 247.40625 53.035156 247.394531 C 52.273438 247.328125 51.511719 247.253906 50.746094 247.183594 C 50.660156 247.160156 50.570312 247.148438 50.480469 247.148438 C 50.40625 247.15625 50.292969 247.199219 50.28125 247.25 C 50.242188 247.40625 50.175781 247.433594 50.023438 247.339844 L 49.984375 247.613281 L 49.855469 247.558594 C 49.671875 247.671875 49.53125 247.828125 49.371094 247.847656 C 49.183594 247.867188 48.96875 247.792969 48.785156 247.714844 C 48.542969 247.613281 48.429688 247.601562 48.289062 247.820312 C 48.113281 248.09375 47.867188 248.148438 47.582031 248.117188 C 47.390625 248.097656 47.207031 248.128906 47.03125 248.214844 C 46.683594 248.363281 46.3125 248.449219 45.945312 248.5625 Z M 52.9375 245.550781 L 52.5 245.832031 L 52.515625 245.898438 C 52.667969 245.929688 52.820312 245.949219 52.976562 245.957031 C 53.007812 245.957031 53.078125 245.859375 53.070312 245.816406 C 53.035156 245.722656 52.992188 245.636719 52.9375 245.550781 Z M 52.9375 245.550781 " fill-opacity="1" fill-rule="nonzero"/></g><g clip-path="url(#64440649ef)"><path fill="#3498db" d="M 337.765625 243.234375 C 337.765625 243.234375 341.421875 231.929688 332.265625 229.539062 C 332.265625 229.539062 330.957031 228.679688 330.878906 228.375 C 330.800781 228.070312 329.910156 227.066406 329.308594 226.804688 C 329.308594 226.804688 328.785156 225.191406 328.449219 224.96875 C 328.449219 224.96875 329.160156 221.078125 328.296875 220.664062 C 327.4375 220.257812 326.203125 222.648438 326.203125 222.648438 C 326.203125 222.648438 324.070312 222.875 323.804688 222.761719 C 323.542969 222.648438 321.410156 220.515625 321 220.851562 C 320.589844 221.191406 320.625 221.902344 321.183594 224.894531 C 321.183594 224.894531 319.164062 227.179688 322.492188 230.46875 C 322.492188 230.46875 322.679688 230.84375 322.871094 231.519531 C 323.054688 232.191406 322.570312 232.625 323.277344 234.167969 C 323.992188 235.710938 325.410156 238.03125 325.1875 238.480469 C 325.1875 238.480469 325.339844 243.644531 324.8125 243.867188 C 324.285156 244.09375 323.296875 245.0625 324.476562 245.625 C 324.476562 245.625 324.480469 246.300781 324.882812 246.484375 C 325.765625 246.894531 326.679688 246.820312 327.089844 246.484375 C 327.5 246.148438 327.765625 246.074219 328.140625 245.210938 L 329.039062 245.363281 C 328.976562 245.503906 328.832031 245.894531 328.992188 246.28125 C 328.992188 246.28125 329.128906 246.597656 329.527344 246.820312 C 330.160156 247.179688 332.1875 246.960938 334.765625 246.261719 C 334.765625 246.261719 335.960938 247.085938 337.90625 246.035156 C 339.855469 244.984375 344.570312 244.953125 345.804688 246.261719 C 347.039062 247.566406 342.144531 248.324219 342.144531 248.324219 C 342.144531 248.324219 340.460938 249.632812 342.667969 249.859375 C 344.875 250.082031 350.339844 247.835938 348.128906 245.589844 C 345.917969 243.347656 341.503906 242.449219 337.765625 243.234375 Z M 337.765625 243.234375 " fill-opacity="1" fill-rule="nonzero"/></g><path fill="#ffffff" d="M 90.089844 261.4375 C 93.175781 261.003906 93.425781 266.535156 90.570312 266.402344 C 88.273438 266.292969 87.40625 261.8125 90.089844 261.4375 " fill-opacity="1" fill-rule="evenodd"/><path fill="#ffffff" d="M 95.050781 261.4375 C 98.453125 260.695312 98.054688 266.738281 94.890625 266.402344 C 92.386719 266.136719 92.875 261.914062 95.050781 261.4375 " fill-opacity="1" fill-rule="evenodd"/><g clip-path="url(#751e687b13)"><path fill="#ffffff" d="M 88.96875 268.082031 C 87.757812 270.722656 84.074219 268.859375 84.484375 266.242188 C 84.917969 263.484375 89.847656 264.890625 88.96875 268.082031 " fill-opacity="1" fill-rule="evenodd"/></g><g clip-path="url(#5a114a39a9)"><path fill="#ffffff" d="M 98.976562 264.800781 C 99.769531 264.644531 100.765625 264.929688 101.136719 265.601562 C 102.160156 267.453125 100.273438 269.71875 98.414062 269.523438 C 97.394531 269.417969 96.804688 268.546875 96.734375 267.761719 C 96.582031 266.082031 97.78125 265.03125 98.976562 264.800781 " fill-opacity="1" fill-rule="evenodd"/></g><g clip-path="url(#9de7695e10)"><path fill="#ffffff" d="M 92.089844 267.28125 C 94.894531 266.796875 97.46875 268.820312 96.894531 272.246094 C 96.773438 272.953125 96.164062 273.957031 95.292969 274.007812 C 94.589844 274.046875 93.765625 273.363281 92.890625 273.367188 C 91.804688 273.371094 90.945312 274.335938 89.929688 273.847656 C 89.074219 273.433594 88.730469 271.773438 88.886719 270.5625 C 89.117188 268.820312 90.398438 267.574219 92.089844 267.28125 " fill-opacity="1" fill-rule="evenodd"/></g><g fill="#ffffff" fill-opacity="1"><g transform="translate(115.088835, 272.415866)"><g><path d="M 0.6875 -0.34375 L 0.6875 -11.546875 C 1.726562 -11.710938 2.640625 -11.796875 3.421875 -11.796875 C 4.816406 -11.796875 5.785156 -11.503906 6.328125 -10.921875 C 6.878906 -10.335938 7.15625 -9.421875 7.15625 -8.171875 C 7.15625 -6.691406 6.785156 -5.679688 6.046875 -5.140625 C 5.566406 -4.796875 5.097656 -4.582031 4.640625 -4.5 C 4.046875 -4.40625 3.367188 -4.359375 2.609375 -4.359375 L 2.609375 -0.359375 C 2.609375 -0.160156 2.597656 -0.03125 2.578125 0.03125 C 2.546875 0.175781 2.351562 0.25 2 0.25 C 1.125 0.25 0.6875 0.0507812 0.6875 -0.34375 Z M 2.65625 -6.5 C 2.695312 -6.488281 2.726562 -6.476562 2.75 -6.46875 C 2.78125 -6.46875 2.898438 -6.46875 3.109375 -6.46875 C 3.316406 -6.46875 3.507812 -6.472656 3.6875 -6.484375 C 3.863281 -6.492188 4.050781 -6.523438 4.25 -6.578125 C 4.445312 -6.640625 4.585938 -6.726562 4.671875 -6.84375 C 4.859375 -7.15625 4.953125 -7.582031 4.953125 -8.125 C 4.953125 -8.664062 4.867188 -9.109375 4.703125 -9.453125 C 4.535156 -9.796875 4.359375 -9.96875 4.171875 -9.96875 C 3.441406 -9.96875 3 -9.953125 2.84375 -9.921875 C 2.6875 -9.890625 2.609375 -9.785156 2.609375 -9.609375 L 2.609375 -6.703125 C 2.609375 -6.585938 2.625 -6.519531 2.65625 -6.5 Z M 2.65625 -6.5 "/></g></g></g><g fill="#ffffff" fill-opacity="1"><g transform="translate(134.709365, 272.415866)"><g><path d="M 5.8125 -6.984375 C 6.21875 -6.984375 6.421875 -6.800781 6.421875 -6.4375 C 6.421875 -5.9375 6.390625 -5.59375 6.328125 -5.40625 C 6.265625 -5.21875 6.109375 -5.125 5.859375 -5.125 L 2.84375 -5.125 L 2.84375 -1.859375 L 6.390625 -1.859375 C 6.640625 -1.847656 6.804688 -1.796875 6.890625 -1.703125 C 6.984375 -1.617188 7.03125 -1.492188 7.03125 -1.328125 C 7.03125 -0.816406 6.984375 -0.46875 6.890625 -0.28125 C 6.804688 -0.09375 6.625 0 6.34375 0 L 0.9375 0 L 0.6875 -0.25 L 0.6875 -11.546875 L 6.140625 -11.546875 C 6.578125 -11.535156 6.796875 -11.375 6.796875 -11.0625 C 6.785156 -10.78125 6.769531 -10.5625 6.75 -10.40625 C 6.738281 -10.25 6.675781 -10.09375 6.5625 -9.9375 C 6.457031 -9.78125 6.300781 -9.703125 6.09375 -9.703125 L 2.671875 -9.703125 L 2.84375 -6.984375 Z M 5.8125 -6.984375 "/></g></g></g><g fill="#ffffff" fill-opacity="1"><g transform="translate(154.422075, 272.415866)"><g><path d="M 2.640625 -0.328125 L 2.640625 -9.703125 L 0.71875 -9.703125 C 0.476562 -9.710938 0.320312 -9.78125 0.25 -9.90625 C 0.15625 -10.050781 0.109375 -10.304688 0.109375 -10.671875 C 0.109375 -11.253906 0.28125 -11.546875 0.625 -11.546875 L 6.21875 -11.546875 C 6.8125 -11.546875 7.109375 -11.390625 7.109375 -11.078125 C 7.109375 -10.160156 6.863281 -9.703125 6.375 -9.703125 L 4.65625 -9.71875 L 4.796875 -6.609375 L 4.8125 -0.359375 C 4.8125 -0.160156 4.804688 -0.03125 4.796875 0.03125 C 4.753906 0.175781 4.550781 0.25 4.1875 0.25 C 3.15625 0.25 2.640625 0.0546875 2.640625 -0.328125 Z M 2.640625 -0.328125 "/></g></g></g><g fill="#ffffff" fill-opacity="1"><g transform="translate(173.935055, 272.415866)"><g/></g></g><g fill="#ffffff" fill-opacity="1"><g transform="translate(190.313661, 272.415866)"><g><path d="M 0.734375 -1.125 C 0.523438 -1.382812 0.421875 -1.582031 0.421875 -1.71875 C 0.421875 -1.863281 0.539062 -2.054688 0.78125 -2.296875 C 1.019531 -2.535156 1.175781 -2.664062 1.25 -2.6875 C 1.320312 -2.707031 1.394531 -2.71875 1.46875 -2.71875 C 1.539062 -2.71875 1.660156 -2.671875 1.828125 -2.578125 C 2.585938 -1.984375 3.253906 -1.6875 3.828125 -1.6875 C 4.398438 -1.6875 4.769531 -1.816406 4.9375 -2.078125 C 5.113281 -2.347656 5.203125 -2.695312 5.203125 -3.125 C 5.203125 -3.5625 5.046875 -3.910156 4.734375 -4.171875 C 4.429688 -4.441406 3.929688 -4.765625 3.234375 -5.140625 C 2.535156 -5.523438 1.921875 -6.019531 1.390625 -6.625 C 0.867188 -7.226562 0.609375 -7.851562 0.609375 -8.5 C 0.609375 -9.644531 0.90625 -10.476562 1.5 -11 C 2.101562 -11.53125 2.984375 -11.796875 4.140625 -11.796875 C 4.847656 -11.796875 5.539062 -11.628906 6.21875 -11.296875 C 6.582031 -11.148438 6.753906 -11 6.734375 -10.84375 C 6.722656 -10.78125 6.710938 -10.6875 6.703125 -10.5625 C 6.503906 -10.007812 6.351562 -9.691406 6.25 -9.609375 C 6.21875 -9.585938 6.144531 -9.578125 6.03125 -9.578125 C 5.925781 -9.578125 5.644531 -9.660156 5.1875 -9.828125 C 4.726562 -10.003906 4.335938 -10.09375 4.015625 -10.09375 C 3.691406 -10.09375 3.421875 -9.976562 3.203125 -9.75 C 2.992188 -9.53125 2.890625 -9.210938 2.890625 -8.796875 C 2.890625 -8.390625 3.070312 -8.019531 3.4375 -7.6875 C 3.8125 -7.351562 4.378906 -7.007812 5.140625 -6.65625 C 5.953125 -6.226562 6.5625 -5.789062 6.96875 -5.34375 C 7.375 -4.894531 7.578125 -4.289062 7.578125 -3.53125 C 7.578125 -1.007812 6.507812 0.25 4.375 0.25 C 2.789062 0.25 1.578125 -0.207031 0.734375 -1.125 Z M 0.734375 -1.125 "/></g></g></g><g fill="#ffffff" fill-opacity="1"><g transform="translate(210.6256, 272.415866)"><g><path d="M 5.34375 -11.28125 C 5.34375 -11.488281 5.390625 -11.625 5.484375 -11.6875 C 5.585938 -11.757812 5.789062 -11.796875 6.09375 -11.796875 C 6.832031 -11.796875 7.207031 -11.609375 7.21875 -11.234375 L 7.515625 -6.625 L 7.515625 -0.328125 C 7.515625 -0.148438 7.507812 -0.03125 7.5 0.03125 C 7.457031 0.175781 7.253906 0.25 6.890625 0.25 C 5.859375 0.25 5.34375 0.0625 5.34375 -0.3125 L 5.34375 -4.765625 L 2.828125 -4.765625 L 2.84375 -0.328125 C 2.84375 -0.148438 2.835938 -0.03125 2.828125 0.03125 C 2.785156 0.175781 2.585938 0.25 2.234375 0.25 C 1.203125 0.25 0.6875 0.0507812 0.6875 -0.34375 L 0.6875 -11.265625 C 0.6875 -11.484375 0.734375 -11.625 0.828125 -11.6875 C 0.929688 -11.757812 1.132812 -11.796875 1.4375 -11.796875 C 2.175781 -11.796875 2.550781 -11.617188 2.5625 -11.265625 L 2.828125 -6.609375 L 5.34375 -6.609375 Z M 5.34375 -11.28125 "/></g></g></g><g fill="#ffffff" fill-opacity="1"><g transform="translate(231.106544, 272.415866)"><g><path d="M 0.5625 -5.703125 C 0.5625 -7.328125 0.691406 -8.570312 0.953125 -9.4375 C 1.210938 -10.3125 1.617188 -10.921875 2.171875 -11.265625 C 2.734375 -11.617188 3.539062 -11.796875 4.59375 -11.796875 C 5.644531 -11.796875 6.445312 -11.617188 7 -11.265625 C 7.5625 -10.921875 7.96875 -10.316406 8.21875 -9.453125 C 8.46875 -8.585938 8.59375 -7.335938 8.59375 -5.703125 C 8.59375 -3.453125 8.304688 -1.894531 7.734375 -1.03125 C 7.160156 -0.175781 6.109375 0.25 4.578125 0.25 C 3.054688 0.25 2.003906 -0.175781 1.421875 -1.03125 C 0.847656 -1.894531 0.5625 -3.453125 0.5625 -5.703125 Z M 3.125 -8.5625 C 3.070312 -8.175781 3.039062 -7.785156 3.03125 -7.390625 C 3.019531 -6.992188 3.015625 -6.328125 3.015625 -5.390625 C 3.015625 -4.453125 3.039062 -3.664062 3.09375 -3.03125 C 3.15625 -2.394531 3.238281 -1.972656 3.34375 -1.765625 C 3.445312 -1.566406 3.585938 -1.46875 3.765625 -1.46875 C 4.660156 -1.46875 5.25 -1.5625 5.53125 -1.75 C 5.632812 -1.820312 5.734375 -1.9375 5.828125 -2.09375 C 5.921875 -2.257812 5.988281 -2.429688 6.03125 -2.609375 C 6.070312 -2.785156 6.109375 -3.039062 6.140625 -3.375 C 6.179688 -3.820312 6.203125 -4.613281 6.203125 -5.75 C 6.203125 -6.894531 6.171875 -7.796875 6.109375 -8.453125 C 6.054688 -9.117188 5.976562 -9.570312 5.875 -9.8125 C 5.769531 -10.050781 5.628906 -10.171875 5.453125 -10.171875 C 5.046875 -10.171875 4.710938 -10.148438 4.453125 -10.109375 C 4.203125 -10.078125 3.976562 -9.988281 3.78125 -9.84375 C 3.59375 -9.707031 3.453125 -9.554688 3.359375 -9.390625 C 3.265625 -9.222656 3.1875 -8.945312 3.125 -8.5625 Z M 3.125 -8.5625 "/></g></g></g><g fill="#ffffff" fill-opacity="1"><g transform="translate(252.570821, 272.415866)"><g><path d="M 0.6875 -0.34375 L 0.6875 -11.546875 C 1.726562 -11.710938 2.640625 -11.796875 3.421875 -11.796875 C 4.816406 -11.796875 5.785156 -11.503906 6.328125 -10.921875 C 6.878906 -10.335938 7.15625 -9.421875 7.15625 -8.171875 C 7.15625 -6.691406 6.785156 -5.679688 6.046875 -5.140625 C 5.566406 -4.796875 5.097656 -4.582031 4.640625 -4.5 C 4.046875 -4.40625 3.367188 -4.359375 2.609375 -4.359375 L 2.609375 -0.359375 C 2.609375 -0.160156 2.597656 -0.03125 2.578125 0.03125 C 2.546875 0.175781 2.351562 0.25 2 0.25 C 1.125 0.25 0.6875 0.0507812 0.6875 -0.34375 Z M 2.65625 -6.5 C 2.695312 -6.488281 2.726562 -6.476562 2.75 -6.46875 C 2.78125 -6.46875 2.898438 -6.46875 3.109375 -6.46875 C 3.316406 -6.46875 3.507812 -6.472656 3.6875 -6.484375 C 3.863281 -6.492188 4.050781 -6.523438 4.25 -6.578125 C 4.445312 -6.640625 4.585938 -6.726562 4.671875 -6.84375 C 4.859375 -7.15625 4.953125 -7.582031 4.953125 -8.125 C 4.953125 -8.664062 4.867188 -9.109375 4.703125 -9.453125 C 4.535156 -9.796875 4.359375 -9.96875 4.171875 -9.96875 C 3.441406 -9.96875 3 -9.953125 2.84375 -9.921875 C 2.6875 -9.890625 2.609375 -9.785156 2.609375 -9.609375 L 2.609375 -6.703125 C 2.609375 -6.585938 2.625 -6.519531 2.65625 -6.5 Z M 2.65625 -6.5 "/></g></g></g><path fill="#ffffff" d="M 279.925781 260.046875 C 283.359375 259.566406 283.636719 265.707031 280.460938 265.558594 C 277.910156 265.441406 276.945312 260.464844 279.925781 260.046875 " fill-opacity="1" fill-rule="evenodd"/><g clip-path="url(#efb290649b)"><path fill="#ffffff" d="M 285.441406 260.046875 C 289.21875 259.222656 288.777344 265.933594 285.265625 265.558594 C 282.480469 265.265625 283.023438 260.574219 285.441406 260.046875 " fill-opacity="1" fill-rule="evenodd"/></g><g clip-path="url(#c87b6b9e56)"><path fill="#ffffff" d="M 278.683594 267.429688 C 277.339844 270.359375 273.246094 268.289062 273.703125 265.382812 C 274.183594 262.320312 279.660156 263.882812 278.683594 267.429688 " fill-opacity="1" fill-rule="evenodd"/></g><g clip-path="url(#1efe9c15d3)"><path fill="#ffffff" d="M 289.800781 263.78125 C 290.683594 263.609375 291.789062 263.925781 292.199219 264.671875 C 293.339844 266.730469 291.242188 269.246094 289.175781 269.027344 C 288.042969 268.910156 287.386719 267.945312 287.308594 267.070312 C 287.140625 265.203125 288.472656 264.039062 289.800781 263.78125 " fill-opacity="1" fill-rule="evenodd"/></g><g clip-path="url(#a1fefaf71c)"><path fill="#ffffff" d="M 282.152344 266.539062 C 285.265625 266 288.128906 268.246094 287.488281 272.050781 C 287.355469 272.839844 286.675781 273.953125 285.707031 274.007812 C 284.925781 274.054688 284.011719 273.292969 283.039062 273.296875 C 281.832031 273.304688 280.878906 274.375 279.75 273.832031 C 278.800781 273.375 278.417969 271.527344 278.59375 270.183594 C 278.847656 268.25 280.273438 266.863281 282.152344 266.539062 " fill-opacity="1" fill-rule="evenodd"/></g><g clip-path="url(#0597475479)"><path fill="#ff914d" d="M 138.9375 111.511719 C 138.644531 111.519531 138.367188 111.632812 138.078125 111.589844 C 138.070312 111.570312 138.066406 111.53125 138.0625 111.511719 C 138.3125 111.398438 138.589844 111.328125 138.820312 111.164062 C 138.945312 111.042969 139.121094 110.902344 139.035156 110.707031 C 138.945312 110.304688 138.578125 110.054688 138.261719 109.839844 C 137.878906 109.570312 137.453125 109.394531 137.050781 109.183594 C 136.605469 108.996094 136.003906 108.296875 129.960938 107.152344 C 127.730469 106.726562 125.472656 106.53125 125.378906 106.460938 C 123.296875 106.5 121.195312 104.128906 120.554688 103.941406 C 120.457031 103.875 120.382812 104.132812 120.332031 104.132812 L 120.335938 104.132812 C 120.273438 104.507812 120.101562 107.320312 120.449219 107.425781 C 120.058594 107.542969 119.652344 107.527344 119.257812 107.613281 C 118.609375 107.738281 115.320312 108.730469 113.632812 109.117188 C 113.035156 109.226562 112.421875 109.207031 111.820312 109.207031 C 111.234375 109.199219 110.660156 109.070312 110.097656 108.921875 C 109.414062 108.726562 103.902344 106.421875 103.867188 106.609375 C 103.878906 108.140625 104.695312 109.179688 105.28125 110.542969 C 105.300781 110.742188 105.378906 110.933594 105.351562 111.136719 C 105.03125 112.1875 103.804688 113.097656 103.5 114.1875 C 103.503906 114.398438 103.414062 114.585938 103.335938 114.773438 C 103.589844 114.792969 103.839844 114.804688 104.09375 114.800781 C 104.648438 114.734375 107.886719 113.917969 108.382812 113.804688 C 108.871094 113.691406 109.324219 113.484375 109.808594 113.363281 C 110.082031 113.300781 110.324219 113.15625 110.601562 113.113281 C 111.144531 113.042969 111.695312 112.972656 112.242188 113.027344 C 112.625 113.066406 113.007812 113.105469 113.386719 113.183594 C 113.671875 113.25 115.78125 113.648438 117.046875 114.078125 C 117.878906 114.144531 121.035156 115.429688 121.332031 115.492188 C 120.847656 116.285156 120.898438 116.71875 120.773438 117.660156 C 120.691406 117.992188 120.679688 118.371094 120.910156 118.644531 C 121.015625 118.746094 121.183594 118.75 121.304688 118.671875 C 123.007812 116.855469 124.921875 116.160156 125.003906 115.902344 C 126.042969 116.027344 127.089844 115.917969 128.132812 115.921875 C 133.863281 115.863281 137.839844 112.820312 138.207031 112.617188 C 138.511719 112.464844 138.839844 112.289062 139.023438 111.988281 C 139.167969 111.855469 139.117188 111.582031 138.9375 111.511719 Z M 135.46875 111.332031 C 135.132812 111.332031 134.859375 111.058594 134.859375 110.71875 C 134.859375 110.382812 135.132812 110.109375 135.46875 110.109375 C 135.808594 110.109375 136.082031 110.382812 136.082031 110.71875 C 136.082031 111.058594 135.808594 111.332031 135.46875 111.332031 Z M 135.46875 111.332031 " fill-opacity="1" fill-rule="nonzero"/></g><g clip-path="url(#b437704b37)"><g clip-path="url(#78e91eac89)"><path fill="#efefef" d="M 21.308594 211.355469 L 29.390625 211.355469 L 29.390625 219.074219 L 21.308594 219.074219 Z M 21.308594 211.355469 " fill-opacity="1" fill-rule="nonzero"/></g></g><g clip-path="url(#76a0a6f317)"><path fill="#ffffff" d="M 311.730469 109.429688 C 312.691406 112.039062 314.429688 113.035156 313.984375 116.003906 C 313.476562 119.355469 312.925781 121.921875 313.976562 125.328125 C 316.160156 132.371094 323.058594 135.359375 328.753906 138.816406 C 331.785156 140.644531 334.03125 143.269531 336.300781 145.925781 C 338.738281 148.78125 341.632812 151.40625 343.535156 154.660156 C 345.410156 157.867188 346.597656 161.480469 348.214844 164.828125 C 350.074219 168.667969 351.847656 172.449219 352.996094 176.570312 C 353.882812 179.742188 354.226562 183.007812 354.183594 186.289062 C 355.160156 182.683594 352.597656 177.425781 351.738281 173.984375 C 350.398438 168.675781 349.066406 163.375 347.730469 158.066406 L 362.042969 180.101562 C 360.09375 174.980469 356.238281 171.089844 353.40625 166.492188 C 350.390625 161.59375 348.390625 156.050781 345.710938 150.949219 C 349.367188 155.554688 353.6875 159.3125 358.15625 163.09375 C 358.128906 162.164062 358.609375 161.207031 358.230469 160.386719 C 357.824219 159.507812 356.617188 159.023438 356.128906 158.066406 C 354.5 154.824219 353.324219 152.417969 350.933594 149.53125 C 345.890625 143.441406 340.675781 138.105469 337.351562 130.828125 C 335.703125 127.214844 334.09375 123.589844 332.175781 120.113281 C 330.292969 116.683594 327.9375 113.925781 325.875 110.667969 C 324.195312 107.992188 323.285156 106.242188 320.628906 104.480469 C 318.773438 103.246094 314.417969 103.765625 312.816406 105.25 C 312.082031 105.9375 311.945312 107.328125 311.261719 107.878906 C 310.273438 108.683594 308.238281 108.050781 307.292969 109.042969 C 308.671875 109.511719 310.28125 109.375 311.730469 109.429688 " fill-opacity="1" fill-rule="evenodd"/></g></svg>